<svg width="325" height="276" viewBox="0 0 325 276" fill="none" xmlns="http://www.w3.org/2000/svg">
<g clip-path="url(#clip0_1546_1279)">
<path d="M30.9901 256.884C27.421 245.194 21.6683 220.334 29.6252 191.038C32.7507 179.498 42.83 142.293 78.8206 124.236C83.0038 122.134 112.15 108.056 144.817 118.094C188.185 131.374 183.032 170.326 226.837 184.384C255.13 193.433 274.688 182.746 290.39 199.807C297.336 207.412 301.559 217.11 302.394 227.376C303.229 237.642 300.629 247.894 295.003 256.522L30.9901 256.884Z" fill="#EDEDED"/>
<path d="M254.133 223.343C255.166 223.799 256.153 224.352 257.081 224.995C260.773 227.54 261.251 229.963 264.677 231.546C265.736 232.037 266.867 232.355 268.027 232.488C269.958 232.696 271.91 232.417 273.705 231.675C273.705 231.675 276.701 224.34 263.114 221.03L262.636 223.261C262.275 222.668 261.906 222.074 261.544 221.473C260.586 221.233 259.592 221.168 258.61 221.282C256.943 221.5 255.382 222.219 254.133 223.343Z" fill="#7373EF"/>
<path d="M258.542 197.964C259.347 200.561 260.829 202.898 262.834 204.734C264.929 206.597 266.355 206.686 269.481 209.429C271.146 210.889 272.258 211.879 273.098 213.523C274.103 215.629 274.42 217.997 274.005 220.293C269.875 219.842 265.96 218.223 262.718 215.625L264.083 213.025L261.599 214.499C260 212.092 258.904 209.386 258.379 206.545C257.853 203.703 257.909 200.784 258.542 197.964Z" fill="#7373EF"/>
<path d="M277.486 209.361C267.283 207.136 263.489 196.579 263.489 196.579C263.789 196.012 268.266 194.668 268.266 194.668L262.322 193.842C262.322 193.842 261.21 192.205 261.824 188.615C262.438 185.026 259.988 180.058 259.988 180.058C263.345 180.814 266.566 182.077 269.542 183.804C272.695 185.647 277.472 188.431 279.424 193.842C279.74 194.728 279.968 195.642 280.106 196.572L278.059 199.425L280.283 198.353C280.372 202.209 279.404 206.015 277.486 209.361Z" fill="#7373EF"/>
<path d="M286.521 215.017C286.521 215.017 277.759 198.68 300.394 192.593C300.394 192.593 297.89 195.384 298.306 200.823C298.722 206.262 297.085 207.156 297.085 207.156L292.86 206.596L296.341 209.77C296.341 209.77 291.789 215.768 286.521 215.017Z" fill="#7373EF"/>
<path d="M301.015 220.449C301.015 220.449 285.763 215.304 286.364 228.7C286.364 228.7 291.202 233.053 295.733 226.454L294.512 223.923L296.62 224.353C296.62 224.353 299.487 220.866 301.015 220.449Z" fill="#7373EF"/>
<path d="M280.782 241.925C280.744 241.921 280.708 241.909 280.676 241.891C280.643 241.872 280.615 241.847 280.592 241.817C280.57 241.787 280.554 241.752 280.545 241.716C280.537 241.679 280.536 241.641 280.543 241.604C282.815 225.984 295.556 221.746 295.686 221.705C295.757 221.682 295.835 221.689 295.901 221.724C295.968 221.758 296.018 221.818 296.04 221.889C296.063 221.961 296.056 222.038 296.022 222.105C295.987 222.171 295.928 222.222 295.856 222.244C295.733 222.285 283.32 226.427 281.095 241.686C281.084 241.759 281.045 241.824 280.986 241.868C280.928 241.913 280.855 241.933 280.782 241.925Z" fill="#231F20"/>
<path d="M280.515 244.941C280.442 244.934 280.374 244.899 280.325 244.843C280.277 244.787 280.252 244.715 280.256 244.641C281.095 229.106 285.511 213.975 293.16 200.427C293.197 200.362 293.257 200.314 293.329 200.294C293.401 200.273 293.477 200.282 293.543 200.318C293.608 200.354 293.656 200.415 293.676 200.487C293.697 200.558 293.688 200.635 293.652 200.7C286.05 214.177 281.659 229.225 280.822 244.675C280.817 244.75 280.783 244.82 280.727 244.869C280.67 244.919 280.597 244.945 280.522 244.941H280.515Z" fill="#231F20"/>
<path d="M279.874 251.131C279.837 251.126 279.802 251.114 279.77 251.095C279.738 251.076 279.711 251.05 279.689 251.02C279.667 250.99 279.652 250.956 279.644 250.92C279.636 250.884 279.635 250.846 279.642 250.81C282.668 231.87 279.909 212.458 271.726 195.111C271.694 195.043 271.691 194.966 271.716 194.895C271.742 194.825 271.795 194.768 271.862 194.736C271.93 194.704 272.008 194.701 272.078 194.726C272.149 194.752 272.206 194.805 272.238 194.872C280.461 212.324 283.234 231.848 280.195 250.899C280.189 250.935 280.176 250.97 280.157 251.001C280.137 251.033 280.112 251.06 280.082 251.081C280.053 251.103 280.019 251.118 279.983 251.127C279.947 251.135 279.91 251.137 279.874 251.131Z" fill="#231F20"/>
<path d="M280.379 246.211C280.308 246.205 280.241 246.172 280.194 246.119C280.147 246.065 280.123 245.995 280.126 245.924C280.297 238.493 279.089 224.558 269.112 214.703C267.521 213.138 265.777 211.737 263.905 210.52C263.844 210.479 263.801 210.415 263.786 210.342C263.771 210.27 263.784 210.194 263.824 210.131C263.843 210.1 263.869 210.072 263.899 210.051C263.929 210.029 263.964 210.014 264 210.006C264.037 209.999 264.074 209.999 264.111 210.006C264.147 210.013 264.182 210.028 264.212 210.049C266.119 211.283 267.894 212.71 269.508 214.308C279.635 224.305 280.857 238.417 280.686 245.938C280.686 245.975 280.679 246.012 280.664 246.046C280.65 246.081 280.628 246.112 280.602 246.138C280.575 246.164 280.543 246.185 280.509 246.198C280.474 246.212 280.437 246.218 280.399 246.217L280.379 246.211Z" fill="#231F20"/>
<path d="M281.792 246.34C281.731 246.333 281.675 246.308 281.63 246.268C281.584 246.227 281.553 246.174 281.539 246.115C280.619 241.571 278.518 237.349 275.448 233.874C272.377 230.4 268.446 227.796 264.049 226.325C263.978 226.3 263.919 226.248 263.886 226.181C263.853 226.113 263.847 226.035 263.871 225.963C263.896 225.894 263.947 225.837 264.014 225.805C264.08 225.773 264.156 225.769 264.226 225.793C268.719 227.298 272.736 229.961 275.872 233.514C279.009 237.066 281.154 241.381 282.092 246.026C282.106 246.099 282.091 246.175 282.05 246.238C282.01 246.3 281.946 246.344 281.873 246.361L281.792 246.34Z" fill="#231F20"/>
<path d="M269.856 243.099L272.586 256.965H288.964L291.693 243.099H269.856ZM288.363 256.228H273.179L270.757 243.836H290.786L288.363 256.228Z" fill="#231F20"/>
<path d="M290.786 243.836L288.363 256.229H273.18L270.757 243.836H290.786Z" fill="white"/>
<path d="M292.376 243.468H269.16L267.829 238.923H293.713L292.376 243.468Z" fill="#231F20"/>
<path d="M306.993 256.966C307.008 257.148 306.986 257.331 306.929 257.504C306.872 257.678 306.78 257.838 306.66 257.975C306.54 258.113 306.393 258.225 306.229 258.305C306.064 258.384 305.886 258.43 305.703 258.44H20.2898C19.9334 258.391 19.6066 258.215 19.3701 257.944C19.1335 257.673 19.0032 257.325 19.0032 256.966C19.0032 256.606 19.1335 256.258 19.3701 255.987C19.6066 255.716 19.9334 255.54 20.2898 255.492H305.717C305.898 255.503 306.075 255.55 306.238 255.631C306.401 255.711 306.546 255.823 306.665 255.961C306.784 256.098 306.874 256.257 306.93 256.43C306.987 256.603 307.008 256.785 306.993 256.966Z" fill="#231F20"/>
<path d="M83.2972 240.56L83.734 249.827L89.6505 249.043L88.7907 238.138L83.2972 240.56Z" fill="white"/>
<path d="M83.734 250.23C83.639 250.23 83.5471 250.196 83.4747 250.135C83.433 250.099 83.3989 250.055 83.3743 250.006C83.3497 249.957 83.3351 249.903 83.3314 249.848L82.9014 240.581C82.8977 240.501 82.9185 240.421 82.9612 240.353C83.0038 240.284 83.0663 240.231 83.1403 240.199L88.5996 237.776C88.6563 237.746 88.7196 237.73 88.7839 237.73C88.8482 237.73 88.9115 237.746 88.9681 237.776C89.0235 237.809 89.0703 237.855 89.1047 237.91C89.1391 237.964 89.1601 238.026 89.166 238.09L90.0259 249.009C90.0337 249.112 90.0021 249.213 89.9374 249.293C89.8726 249.373 89.7798 249.425 89.6778 249.439L83.7613 250.23H83.734ZM83.734 240.82L84.1298 249.371L89.2343 248.688L88.4495 238.732L83.734 240.82Z" fill="#231F20"/>
<path d="M44.8226 242.437L43.7717 248.19H48.9513L50.125 241.106L44.8226 242.437Z" fill="white"/>
<path d="M48.9512 248.599H43.7716C43.7125 248.598 43.6542 248.585 43.6011 248.559C43.5479 248.533 43.5013 248.495 43.4646 248.449C43.4268 248.404 43.3993 248.351 43.384 248.295C43.3687 248.238 43.3659 248.179 43.3758 248.121L44.4268 242.369C44.4398 242.293 44.4745 242.222 44.5265 242.165C44.5785 242.108 44.6457 242.068 44.7202 242.048L50.0294 240.751C50.094 240.738 50.1609 240.739 50.2248 240.756C50.2887 240.773 50.3479 240.804 50.3979 240.847C50.4462 240.893 50.4827 240.949 50.5041 241.012C50.5255 241.075 50.5312 241.143 50.5207 241.208L49.347 248.258C49.3337 248.353 49.2862 248.44 49.2134 248.503C49.1405 248.566 49.0473 248.6 48.9512 248.599ZM44.263 247.794H48.6168L49.6336 241.652L45.1706 242.798L44.263 247.794Z" fill="#231F20"/>
<path d="M50.5618 248.21V254.399H29.9733C30.0057 254.076 30.1381 253.771 30.3521 253.526C30.5662 253.281 30.8512 253.11 31.1675 253.035C35.5355 251.931 39.6518 250.002 43.294 247.35H49.7224C49.9463 247.357 50.1588 247.451 50.3153 247.611C50.4718 247.771 50.5601 247.986 50.5618 248.21Z" fill="#231F20"/>
<path d="M103.708 254.557H82.4784C82.533 252.51 82.5739 250.408 82.6285 248.327C82.6338 248.092 82.7302 247.869 82.897 247.705C83.0639 247.541 83.2883 247.448 83.5225 247.446L90.5787 247.357C90.8123 247.355 91.0393 247.435 91.2201 247.583C94.5296 250.228 98.3808 252.113 102.5 253.103C102.836 253.175 103.137 253.358 103.356 253.621C103.575 253.885 103.699 254.214 103.708 254.557Z" fill="#231F20"/>
<path d="M50.5618 254.4V255.54H29.9324V254.571C29.9252 254.514 29.9252 254.457 29.9324 254.4H50.5618Z" fill="#231F20"/>
<path d="M103.708 254.557V255.526L82.4784 255.765C82.4784 255.362 82.4784 254.952 82.4784 254.55L103.708 254.557Z" fill="#231F20"/>
<path d="M43.2871 243.666L51.1281 182.931L56.9696 125.703H88.8111L90.3465 189.57V242.628L81.9733 243.816C80.2035 225.049 78.4338 206.283 76.6641 187.516L72.631 156.651C69.9969 167.41 67.365 178.156 64.7354 188.888L51.8378 243.816L43.2871 243.666Z" fill="#231F20"/>
<path d="M78.5067 73.2455C77.9334 73.6003 76.787 73.9825 74.4941 73.109L75.4017 82.9699L67.82 85.488L64.0872 82.3148C65.3225 77.1799 65.6732 71.872 65.1245 66.6192C63.3502 65.8822 62.2311 64.572 62.3266 63.3505C62.3449 63.0662 62.4223 62.7889 62.5539 62.5362C62.6856 62.2836 62.8684 62.0612 63.0909 61.8833C63.3831 61.7002 63.7131 61.586 64.056 61.5493C64.3989 61.5127 64.7456 61.5545 65.0699 61.6717C65.4521 60.0953 65.8274 58.5121 66.2027 56.9357L72.7812 56.4853L79.3665 55.9189C79.5371 57.5704 79.7487 59.877 79.8715 62.6407C80.2878 71.4507 79.3392 72.7337 78.5067 73.2455Z" fill="white"/>
<path d="M67.82 85.8909C67.7229 85.8905 67.629 85.8568 67.5538 85.7953L63.8278 82.6221C63.7704 82.5741 63.7277 82.5108 63.7047 82.4396C63.6818 82.3683 63.6795 82.292 63.6982 82.2195C64.2854 79.7824 64.6734 77.3016 64.8583 74.8016C65.0426 72.1574 65.0015 69.5023 64.7355 66.8651C62.9339 66.0462 61.8079 64.6268 61.9171 63.2893C61.9362 62.948 62.0284 62.6149 62.1873 62.3123C62.3462 62.0098 62.5682 61.7448 62.8383 61.5354C63.1156 61.3429 63.4296 61.2097 63.7607 61.1439C64.0918 61.0782 64.4329 61.0814 64.7628 61.1533L65.7932 56.82C65.8133 56.7352 65.8598 56.6592 65.9261 56.6027C65.9924 56.5463 66.0749 56.5124 66.1617 56.506L72.7402 56.0556L79.3187 55.4892C79.4182 55.4808 79.5173 55.5096 79.5968 55.5702C79.6762 55.6307 79.7303 55.7186 79.7486 55.8168C79.9874 58.0347 80.1581 60.3071 80.2604 62.5727C80.6835 71.567 79.7213 72.9318 78.7045 73.5596C77.7764 74.1328 76.514 74.167 74.9376 73.6688L75.7906 82.9019C75.7971 82.9934 75.7732 83.0845 75.7226 83.161C75.672 83.2375 75.5975 83.2951 75.5108 83.325L67.9428 85.8431C67.9049 85.8659 67.8633 85.8821 67.82 85.8909ZM64.5376 82.1649L67.9019 85.031L74.9717 82.6903L74.0914 73.1365C74.0849 73.0689 74.0959 73.0007 74.1234 72.9385C74.1509 72.8764 74.1939 72.8224 74.2483 72.7817C74.3037 72.7412 74.3681 72.7151 74.436 72.7056C74.5038 72.6961 74.573 72.7034 74.6373 72.7271C76.2478 73.3412 77.4762 73.4095 78.2951 72.8977C79.0662 72.4132 79.8578 70.8299 79.4756 62.641C79.3733 60.5255 79.2163 58.4032 79.0048 56.3286L72.8153 56.8609L66.5234 57.2976L65.4656 61.7402C65.4527 61.7957 65.4284 61.848 65.3943 61.8938C65.3603 61.9396 65.3172 61.9779 65.2677 62.0063C65.2163 62.0297 65.1605 62.0418 65.104 62.0418C65.0475 62.0418 64.9916 62.0297 64.9402 62.0063C64.6757 61.9096 64.3928 61.8741 64.1127 61.9025C63.8326 61.9309 63.5625 62.0224 63.3229 62.1701C63.1464 62.311 63.0021 62.488 62.8997 62.6893C62.7973 62.8906 62.7392 63.1114 62.7291 63.337C62.6473 64.3811 63.6709 65.5344 65.2746 66.21C65.3419 66.2364 65.4006 66.281 65.444 66.3388C65.4874 66.3967 65.5138 66.4655 65.5202 66.5376C65.8147 69.2985 65.8604 72.0803 65.6567 74.8494C65.4757 77.3134 65.1015 79.7594 64.5376 82.1649Z" fill="#231F20"/>
<path d="M113.249 85.4063C113.33 84.6817 113.667 84.0095 114.197 83.5092C115.091 82.7449 116.169 82.9632 117.138 82.7517C118.223 82.5128 119.656 81.5916 120.994 78.3842C121.087 78.2547 121.148 78.1048 121.172 77.9469C121.196 77.7891 121.182 77.6278 121.13 77.4766C121.042 77.3421 120.923 77.2305 120.783 77.151C120.643 77.0715 120.486 77.0264 120.325 77.0194C119.363 76.9034 118.858 78.0498 117.596 78.8346C115.917 79.906 113.665 80.2472 113.228 79.6194C112.791 78.9916 114.272 77.6131 113.979 77.3333C113.685 77.0535 110.805 78.6981 109.946 80.6567C109.857 80.8546 109.604 81.5029 109.345 82.3081C109.147 82.9291 109.011 83.4546 108.922 83.8367L113.249 85.4063Z" fill="white"/>
<path d="M113.248 85.8431C113.203 85.8502 113.157 85.8502 113.112 85.8431L108.82 84.2736C108.727 84.2395 108.65 84.1728 108.604 84.086C108.557 83.9993 108.544 83.8985 108.567 83.8027C108.69 83.2909 108.833 82.7654 108.997 82.2468C109.249 81.4484 109.509 80.7932 109.611 80.5544C110.452 78.8925 111.89 77.6102 113.637 76.9649C113.753 76.9243 113.877 76.9156 113.997 76.9396C114.117 76.9636 114.229 77.0195 114.32 77.1014C114.682 77.4494 114.381 77.9271 114.067 78.4662C113.931 78.6846 113.521 79.3465 113.617 79.483C113.828 79.7833 115.732 79.6809 117.438 78.589C117.836 78.3208 118.204 78.012 118.537 77.6678C119.097 77.1287 119.609 76.6168 120.4 76.7192C120.614 76.7246 120.822 76.787 121.004 76.8998C121.185 77.0126 121.333 77.1718 121.433 77.361C121.532 77.5501 121.579 77.7624 121.569 77.9759C121.559 78.1894 121.493 78.3963 121.376 78.5754C120.257 81.2505 118.872 82.7859 117.282 83.1407C116.962 83.2051 116.638 83.2462 116.312 83.2636C115.667 83.2437 115.034 83.4381 114.511 83.8163C114.052 84.2527 113.765 84.8382 113.699 85.4678C113.689 85.5263 113.667 85.582 113.634 85.6314C113.601 85.6808 113.558 85.7227 113.508 85.7544C113.433 85.811 113.342 85.8421 113.248 85.8431ZM109.434 83.6116L112.948 84.9014C113.097 84.2606 113.44 83.6815 113.931 83.2431C114.58 82.7457 115.379 82.4834 116.196 82.4993C116.485 82.4814 116.772 82.4449 117.056 82.3901C118.421 82.0967 119.609 80.7045 120.619 78.2956L120.659 78.2274C120.714 78.1455 120.851 77.8861 120.769 77.7224C120.71 77.6482 120.636 77.5886 120.55 77.5483C120.465 77.5081 120.372 77.4882 120.277 77.4903C119.895 77.4426 119.595 77.7087 119.069 78.2205C118.7 78.6026 118.291 78.9435 117.848 79.2373C116.162 80.3155 113.59 80.8615 112.935 79.9197C112.532 79.3465 112.989 78.6095 113.358 78.0158L113.44 77.8861C112.119 78.5342 111.037 79.5826 110.348 80.882C110.273 81.0594 110.021 81.7008 109.761 82.4993C109.645 82.8132 109.529 83.1953 109.434 83.5775V83.6116Z" fill="#231F20"/>
<path d="M108.335 83.3589L101.804 99.4912L91.4044 82.3694C90.9104 81.5641 90.1679 80.9413 89.2889 80.5951C84.4847 78.8162 79.6782 77.026 74.8695 75.2245C74.5329 76.3491 73.8467 77.3372 72.9104 78.0453C71.9741 78.7533 70.8364 79.1445 69.6626 79.162C68.4217 79.2133 67.2059 78.8023 66.2506 78.0087C65.4218 77.2603 64.885 76.2424 64.7356 75.1357L50.5891 82.9562C49.4865 83.5643 48.5337 84.4111 47.8005 85.4348C47.0672 86.4585 46.5721 87.6331 46.3513 88.8728C45.0138 96.5795 43.6785 104.282 42.3455 111.979C42.2212 112.763 42.3143 113.565 42.6147 114.299C42.915 115.033 43.4111 115.671 44.0488 116.143C44.6865 116.614 45.4414 116.902 46.2313 116.974C47.0211 117.046 47.8156 116.9 48.5282 116.552L57.229 112.457C57.345 114.088 57.4269 115.992 57.4133 118.121C57.4133 118.66 57.4133 119.22 57.4133 119.793V119.936C57.4133 120.789 57.3518 121.622 57.2973 122.42C57.2973 122.966 57.2222 123.492 57.1812 124.01C57.0721 125.327 56.9288 126.569 56.7718 127.73C67.3649 130.038 78.3425 129.926 88.8863 127.402C88.8863 126.535 88.8863 125.655 88.8453 124.775C88.8453 124.29 88.8453 123.799 88.8453 123.314C88.8453 122.35 88.8453 121.381 88.8453 120.407C88.8453 119.923 88.8453 119.438 88.8453 118.947C88.8453 118.572 88.8453 118.196 88.8453 117.814C88.9545 111.672 89.2889 105.892 89.7803 100.392L101.702 114.934C102.036 115.34 102.476 115.646 102.974 115.817C103.471 115.988 104.006 116.017 104.519 115.903C105.032 115.788 105.503 115.534 105.881 115.168C106.258 114.802 106.526 114.338 106.656 113.829C108.972 104.22 111.285 94.6119 113.597 85.0035L108.335 83.3589ZM52.4521 107.421L55.1818 99.4775C55.755 101.757 56.1849 103.9 56.4988 105.872L52.4521 107.421Z" fill="#7373EF"/>
<path d="M80.3902 58.0959C83.0039 55.9258 83.4747 54.3768 83.2973 53.319C83.0243 51.6403 80.943 49.5794 80.9634 49.6067C78.3361 47.3615 76.2411 46.9725 74.8217 47.0203C72.5561 47.0954 72.2899 48.3033 68.7755 48.9447C65.8206 49.4838 64.6332 48.8901 63.3162 50.0161C62.6337 50.6166 62.3062 51.5038 61.6374 53.2781C60.9686 55.0523 60.5933 56.0555 60.7366 57.0996C61.0005 58.5644 61.7593 59.8942 62.8862 60.8665C63.6507 61.3531 64.2854 62.0182 64.7356 62.8046C64.9172 63.1829 65.0348 63.5888 65.0836 64.0056C65.5382 62.9019 65.8213 61.7351 65.923 60.5458C65.9494 60.0616 65.9494 59.5764 65.923 59.0922C65.9149 58.8499 65.9992 58.6136 66.1588 58.4311C66.3185 58.2486 66.5416 58.1337 66.7828 58.1096C68.8301 57.7138 73.4091 59.256 78.807 58.4371C79.3412 58.3555 79.8699 58.2416 80.3902 58.0959Z" fill="#231F20"/>
<path d="M70.4337 64.2308C70.5224 64.845 70.8772 65.309 71.2184 65.2544C71.5596 65.1998 71.7644 64.6675 71.6688 64.0534C71.5733 63.4392 71.2253 62.9751 70.8841 63.0229C70.5429 63.0707 70.3381 63.6166 70.4337 64.2308Z" fill="#231F20"/>
<path d="M76.3366 63.5008C76.4321 64.1218 76.787 64.579 77.1282 64.5313C77.4694 64.4835 77.6673 63.9376 77.5786 63.3234C77.4899 62.7092 77.135 62.2452 76.787 62.2998C76.439 62.3544 76.2138 62.8867 76.3366 63.5008Z" fill="#231F20"/>
<path d="M76.166 68.9668C74.9144 69.2679 73.6372 69.4507 72.3513 69.5127C72.503 69.9406 72.7981 70.3029 73.1865 70.5378C73.575 70.7728 74.0328 70.8661 74.4822 70.8017C74.9316 70.7374 75.3449 70.5195 75.6519 70.185C75.9588 69.8505 76.1405 69.4201 76.166 68.9668Z" fill="#231F20"/>
<path d="M68.83 62.7705C68.7627 62.7692 68.6968 62.7504 68.6389 62.7159C68.6029 62.6919 68.572 62.6609 68.548 62.6249C68.524 62.5888 68.5074 62.5483 68.4992 62.5058C68.4909 62.4633 68.4912 62.4196 68.4999 62.3771C68.5087 62.3347 68.5258 62.2945 68.5502 62.2587C68.905 61.7433 69.4031 61.3433 69.9828 61.108C70.5626 60.8727 71.1986 60.8125 71.8122 60.9348C71.8545 60.9451 71.8944 60.9638 71.9294 60.9898C71.9645 61.0157 71.994 61.0484 72.0162 61.0859C72.0385 61.1234 72.053 61.165 72.059 61.2082C72.065 61.2514 72.0623 61.2953 72.051 61.3374C72.0271 61.4223 71.9707 61.4942 71.894 61.5377C71.8173 61.5811 71.7266 61.5925 71.6416 61.5695C71.155 61.4777 70.6522 61.5302 70.1951 61.7206C69.7379 61.9109 69.3465 62.2308 69.0689 62.6409C69.0413 62.679 69.0055 62.7104 68.9642 62.7329C68.9229 62.7553 68.877 62.7682 68.83 62.7705Z" fill="#231F20"/>
<path d="M74.9718 61.5012C74.9243 61.502 74.8773 61.4926 74.8338 61.4738C74.7902 61.455 74.7512 61.4271 74.7193 61.392C74.6887 61.3616 74.6645 61.3255 74.648 61.2856C74.6314 61.2458 74.6229 61.2031 74.6229 61.16C74.6229 61.1169 74.6314 61.0742 74.648 61.0344C74.6645 60.9946 74.6887 60.9584 74.7193 60.928C76.2547 59.5973 78.1313 60.6073 78.2405 60.655C78.3164 60.6968 78.3726 60.7669 78.3969 60.8501C78.4212 60.9332 78.4116 61.0225 78.3702 61.0986C78.3258 61.1754 78.2532 61.2319 78.1679 61.2561C78.0825 61.2803 77.9911 61.2703 77.913 61.2283C77.4865 60.9985 77.0037 60.8945 76.5205 60.9283C76.0373 60.9622 75.5736 61.1324 75.1833 61.4193C75.1245 61.4705 75.0497 61.4994 74.9718 61.5012Z" fill="#231F20"/>
<path d="M73.8867 67.8613C73.8166 67.8613 73.7482 67.8397 73.6908 67.7994C73.6334 67.7591 73.5898 67.7021 73.566 67.6361C73.552 67.5954 73.5463 67.5522 73.549 67.5092C73.5517 67.4662 73.5629 67.4242 73.582 67.3855C73.601 67.3468 73.6274 67.3123 73.6598 67.2839C73.6922 67.2555 73.7299 67.2337 73.7707 67.2199L75.4699 66.633C73.8117 63.9033 73.7844 63.8146 73.7707 63.7737C73.7447 63.6904 73.7523 63.6003 73.7918 63.5225C73.8313 63.4447 73.8997 63.3855 73.9823 63.3574C74.0613 63.331 74.1473 63.3345 74.224 63.3672C74.3007 63.3999 74.3628 63.4595 74.3985 63.5348C74.4872 63.7054 75.5518 65.4865 76.2547 66.6466C76.2749 66.6905 76.2854 66.7382 76.2854 66.7865C76.2854 66.8348 76.2749 66.8825 76.2547 66.9264C76.2377 66.9727 76.2104 67.0145 76.175 67.0488C76.1395 67.083 76.0968 67.1089 76.05 67.1243L73.9686 67.8409L73.8867 67.8613Z" fill="#231F20"/>
<path d="M71.6075 89.6712L68.83 108.363C68.8182 108.441 68.8234 108.521 68.8455 108.597C68.8676 108.673 68.9059 108.743 68.9578 108.803C69.0098 108.862 69.074 108.91 69.1462 108.943C69.2184 108.975 69.2968 108.991 69.376 108.99H83.7067C83.8392 108.992 83.9678 108.946 84.0693 108.861C84.1707 108.776 84.2382 108.657 84.2595 108.526L87.071 89.8418C87.083 89.763 87.0776 89.6825 87.0551 89.606C87.0327 89.5295 86.9937 89.4589 86.941 89.399C86.8883 89.3392 86.8232 89.2916 86.7502 89.2597C86.6771 89.2277 86.598 89.2121 86.5183 89.214H72.1875C72.0515 89.2053 71.917 89.2471 71.8099 89.3315C71.7029 89.4159 71.6307 89.5369 71.6075 89.6712Z" fill="white"/>
<path d="M83.6793 109.386H69.3486C69.2099 109.387 69.0726 109.358 68.9464 109.3C68.8202 109.243 68.7083 109.158 68.6184 109.052C68.528 108.951 68.461 108.832 68.422 108.702C68.3831 108.572 68.3733 108.435 68.3932 108.301L71.2116 89.61C71.2461 89.384 71.3611 89.1781 71.5354 89.0301C71.7097 88.8822 71.9316 88.8021 72.1602 88.8047H86.4909C86.6305 88.8045 86.7686 88.8343 86.8957 88.8919C87.0229 88.9496 87.1361 89.0339 87.2279 89.1391C87.3169 89.242 87.382 89.3632 87.4186 89.4942C87.4552 89.6251 87.4623 89.7626 87.4395 89.8966L84.6279 108.581C84.5934 108.807 84.4784 109.013 84.3041 109.161C84.1298 109.309 83.908 109.389 83.6793 109.386ZM72.0032 89.7328L69.1917 108.417C69.184 108.436 69.18 108.455 69.18 108.475C69.18 108.495 69.184 108.515 69.1917 108.533C69.2079 108.549 69.2272 108.561 69.2483 108.57C69.2694 108.578 69.2919 108.582 69.3145 108.581H83.6452C83.6816 108.582 83.7171 108.57 83.7457 108.548C83.7743 108.525 83.7943 108.494 83.8022 108.458L86.6137 89.7738C86.6173 89.7542 86.6161 89.734 86.6102 89.715C86.6042 89.696 86.5937 89.6787 86.5796 89.6646C86.5648 89.6466 86.546 89.6323 86.5247 89.6228C86.5033 89.6133 86.4801 89.6089 86.4568 89.61H72.1261C72.09 89.6104 72.0551 89.6226 72.0267 89.6448C71.9984 89.667 71.9781 89.6979 71.9691 89.7328H72.0032Z" fill="#231F20"/>
<path d="M78.6909 100.583C79.5276 100.583 80.2058 99.9172 80.2058 99.0956C80.2058 98.274 79.5276 97.6079 78.6909 97.6079C77.8542 97.6079 77.1759 98.274 77.1759 99.0956C77.1759 99.9172 77.8542 100.583 78.6909 100.583Z" fill="white"/>
<path d="M78.6977 100.986C78.3247 100.982 77.9613 100.868 77.6531 100.658C77.345 100.447 77.1059 100.151 76.966 99.8051C76.826 99.4593 76.7915 99.0799 76.8667 98.7146C76.942 98.3493 77.1236 98.0144 77.3888 97.752C77.6539 97.4897 77.9908 97.3117 78.3569 97.2404C78.723 97.1691 79.102 97.2077 79.4462 97.3514C79.7904 97.495 80.0844 97.7373 80.2913 98.0477C80.4981 98.3581 80.6084 98.7228 80.6085 99.0957C80.6049 99.5995 80.4017 100.081 80.0436 100.436C79.6855 100.79 79.2015 100.988 78.6977 100.986ZM78.6977 98.0107C78.4843 98.0161 78.2773 98.0842 78.1025 98.2067C77.9277 98.3291 77.7929 98.5004 77.7149 98.6991C77.637 98.8978 77.6193 99.115 77.6642 99.3237C77.7091 99.5323 77.8146 99.7231 77.9674 99.8721C78.1201 100.021 78.3135 100.122 78.5232 100.162C78.7329 100.201 78.9496 100.178 79.1463 100.095C79.343 100.012 79.5108 99.8734 79.6289 99.6956C79.747 99.5178 79.81 99.3092 79.81 99.0957C79.8083 98.9515 79.7781 98.8089 79.7212 98.6763C79.6643 98.5437 79.5819 98.4236 79.4786 98.3228C79.3753 98.2221 79.2532 98.1427 79.1192 98.0891C78.9852 98.0355 78.842 98.0089 78.6977 98.0107Z" fill="#231F20"/>
<path d="M66.1344 103.067C66.7213 102.944 67.2854 102.73 67.8063 102.433C68.5221 102.026 69.1377 101.464 69.6079 100.788C69.7042 100.656 69.8278 100.546 69.9703 100.466C70.1127 100.386 70.2708 100.338 70.4336 100.324C72.2352 100.174 72.5423 99.7917 73.641 99.239C75.1491 98.4883 75.3538 97.3691 76.3706 97.451C76.6948 97.4813 77.0019 97.6098 77.251 97.8195C78.063 98.5497 77.7082 100.031 77.5512 100.672C77.222 101.935 76.5404 103.078 75.5859 103.968C74.8013 104.733 73.8737 105.336 72.8562 105.742C72.5729 105.857 72.2663 105.901 71.9622 105.872C70.492 105.742 69.0146 106.025 67.6971 106.691C67.183 105.481 66.6621 104.273 66.1344 103.067Z" fill="white"/>
<path d="M67.7176 107.093C67.6723 107.099 67.6264 107.099 67.5811 107.093C67.5296 107.075 67.4825 107.046 67.4426 107.008C67.4027 106.971 67.3709 106.925 67.3491 106.875L65.7659 103.251C65.7408 103.197 65.7278 103.138 65.7278 103.077C65.7278 103.017 65.7408 102.958 65.7659 102.903C65.7933 102.851 65.832 102.806 65.8792 102.77C65.9264 102.735 65.981 102.71 66.0389 102.699C66.5849 102.585 67.1099 102.387 67.5948 102.112C68.2594 101.734 68.8307 101.211 69.2667 100.583C69.3949 100.402 69.5619 100.252 69.7555 100.143C69.9491 100.035 70.1644 99.9704 70.3859 99.9554C71.2534 99.93 72.0997 99.6809 72.8426 99.2321C73.0268 99.1297 73.2179 99.0205 73.4499 98.9113C73.9606 98.6516 74.4224 98.3053 74.8147 97.8877C74.9598 97.6707 75.15 97.4876 75.3723 97.3508C75.5947 97.214 75.8439 97.1268 76.1029 97.095C76.362 97.0633 76.6249 97.0878 76.8737 97.1669C77.1224 97.246 77.3512 97.3778 77.5444 97.5533C78.5339 98.4336 78.1381 100.085 77.9743 100.788C77.6213 102.125 76.9001 103.335 75.893 104.282C75.0695 105.086 74.0955 105.719 73.0268 106.145C72.6847 106.281 72.3153 106.335 71.9486 106.302C71.5625 106.271 71.1746 106.271 70.7885 106.302C69.7831 106.365 68.801 106.632 67.9019 107.087C67.842 107.105 67.7786 107.107 67.7176 107.093ZM66.694 103.34L67.9223 106.152C68.8121 105.761 69.7639 105.53 70.7339 105.469C71.1609 105.435 71.5899 105.435 72.0168 105.469C72.2497 105.487 72.4834 105.449 72.6992 105.36C73.6715 104.977 74.5577 104.404 75.3061 103.675C76.2066 102.836 76.8503 101.76 77.1622 100.57C77.2987 100.003 77.6126 98.6793 76.9848 98.1129C76.8011 97.9599 76.5748 97.867 76.3365 97.8468C75.9748 97.8468 75.7633 98.0037 75.3402 98.4268C74.8957 98.9001 74.3743 99.2947 73.7979 99.5938L73.2179 99.9008C72.3777 100.408 71.4212 100.69 70.4405 100.72C70.3368 100.724 70.2357 100.753 70.1446 100.802C70.0536 100.852 69.975 100.922 69.915 101.006C69.4083 101.732 68.7492 102.337 67.9838 102.781C67.5757 103.014 67.1432 103.202 66.694 103.34Z" fill="#231F20"/>
<path d="M64.4421 75.2109L63.3775 75.7023C63.2935 75.7437 63.2276 75.8145 63.1924 75.9013C63.1571 75.9881 63.155 76.0849 63.1864 76.1731C63.7259 77.5155 64.6577 78.6641 65.8601 79.4687C67.0625 80.2733 68.4795 80.6966 69.9262 80.6834C71.373 80.6701 72.782 80.2209 73.9695 79.3943C75.1569 78.5678 76.0675 77.4024 76.5822 76.0503C76.6058 75.959 76.5935 75.8621 76.5478 75.7795C76.5021 75.697 76.4265 75.6352 76.3366 75.6067L75.388 75.2723C75.1862 75.2033 74.9661 75.211 74.7697 75.2941C74.5733 75.3772 74.4144 75.5298 74.3234 75.7227C73.9214 76.5388 73.2989 77.2261 72.5264 77.7067C71.7539 78.1873 70.8623 78.442 69.9526 78.442C69.0428 78.442 68.1512 78.1873 67.3787 77.7067C66.6062 77.2261 65.9837 76.5388 65.5817 75.7227C65.4962 75.5055 65.3291 75.3304 65.1161 75.2347C64.9032 75.1391 64.6612 75.1305 64.4421 75.2109Z" fill="#97BCFF"/>
<path d="M65.7318 102.337L63.0636 103.361C63.903 105.06 64.7423 106.773 65.5885 108.451L68.1067 107.291L65.7318 102.337Z" fill="#97BCFF"/>
<path d="M108.28 83.2705C107.967 84.1235 107.653 84.9765 107.332 85.8296L112.873 87.4878L113.617 85.0175L108.28 83.2705Z" fill="#97BCFF"/>
<path d="M88.7975 124.741C88.0625 124.721 87.3498 124.484 86.7502 124.058C86.3332 123.746 85.824 123.583 85.3035 123.594C84.7823 123.578 84.2715 123.742 83.8568 124.058C83.1957 124.511 82.4131 124.754 81.6116 124.754C80.8102 124.754 80.0276 124.511 79.3665 124.058C78.9446 123.756 78.4387 123.593 77.9198 123.593C77.4008 123.593 76.8949 123.756 76.4731 124.058C75.812 124.511 75.0293 124.754 74.2279 124.754C73.4265 124.754 72.6438 124.511 71.9828 124.058C71.5609 123.756 71.055 123.593 70.536 123.593C70.0171 123.593 69.5112 123.756 69.0893 124.058C68.4282 124.511 67.6456 124.754 66.8442 124.754C66.0428 124.754 65.2601 124.511 64.599 124.058C64.1782 123.756 63.6735 123.594 63.1557 123.594C62.6379 123.594 62.1332 123.756 61.7124 124.058C61.052 124.51 60.2707 124.751 59.4707 124.751C58.6707 124.751 57.8893 124.51 57.2289 124.058L57.1129 123.99C57.1539 123.471 57.1948 122.946 57.2289 122.4C57.5097 122.517 57.7773 122.663 58.0273 122.837C58.4481 123.138 58.9529 123.3 59.4707 123.3C59.9884 123.3 60.4932 123.138 60.914 122.837C61.5747 122.379 62.359 122.134 63.1625 122.134C63.966 122.134 64.7504 122.379 65.4111 122.837C65.8319 123.138 66.3366 123.3 66.8544 123.3C67.3722 123.3 67.8769 123.138 68.2977 122.837C68.957 122.379 69.7403 122.134 70.5429 122.134C71.3454 122.134 72.1287 122.379 72.788 122.837C73.2099 123.139 73.7158 123.301 74.2347 123.301C74.7537 123.301 75.2596 123.139 75.6815 122.837C76.3407 122.379 77.1241 122.134 77.9266 122.134C78.7291 122.134 79.5125 122.379 80.1717 122.837C80.5936 123.139 81.0995 123.301 81.6185 123.301C82.1374 123.301 82.6433 123.139 83.0652 122.837C83.7245 122.379 84.5078 122.134 85.3103 122.134C86.1129 122.134 86.8962 122.379 87.5555 122.837C87.9064 123.101 88.3254 123.26 88.7634 123.294C88.7907 123.778 88.7907 124.27 88.7975 124.741Z" fill="#97BCFF"/>
<path d="M88.7975 118.927C88.7975 119.418 88.7975 119.902 88.7975 120.387C88.0774 120.355 87.3814 120.118 86.7912 119.705C86.3742 119.393 85.8649 119.23 85.3444 119.241C84.8232 119.225 84.3124 119.388 83.8977 119.705C83.2366 120.158 82.454 120.4 81.6526 120.4C80.8512 120.4 80.0685 120.158 79.4074 119.705C78.9856 119.402 78.4797 119.24 77.9607 119.24C77.4417 119.24 76.9358 119.402 76.514 119.705C75.8529 120.158 75.0702 120.4 74.2688 120.4C73.4674 120.4 72.6848 120.158 72.0237 119.705C71.6018 119.402 71.0959 119.24 70.577 119.24C70.058 119.24 69.5521 119.402 69.1302 119.705C68.4692 120.158 67.6865 120.4 66.8851 120.4C66.0837 120.4 65.301 120.158 64.6399 119.705C64.2191 119.403 63.7144 119.241 63.1966 119.241C62.6789 119.241 62.1741 119.403 61.7533 119.705C61.0975 120.167 60.3104 120.406 59.5082 120.387C58.7544 120.405 58.0133 120.191 57.3859 119.773C57.3859 119.2 57.3859 118.64 57.3859 118.101C57.6224 118.206 57.8505 118.329 58.0683 118.469C58.4891 118.771 58.9938 118.933 59.5116 118.933C60.0294 118.933 60.5341 118.771 60.9549 118.469C61.6156 118.012 62.4 117.767 63.2035 117.767C64.0069 117.767 64.7913 118.012 65.452 118.469C65.8728 118.771 66.3776 118.933 66.8953 118.933C67.4131 118.933 67.9178 118.771 68.3386 118.469C68.9979 118.012 69.7813 117.767 70.5838 117.767C71.3863 117.767 72.1697 118.012 72.8289 118.469C73.2508 118.772 73.7567 118.934 74.2757 118.934C74.7946 118.934 75.3005 118.772 75.7224 118.469C76.3817 118.012 77.165 117.767 77.9675 117.767C78.77 117.767 79.5534 118.012 80.2127 118.469C80.6274 118.785 81.1382 118.949 81.6594 118.933C82.1799 118.944 82.6891 118.781 83.1061 118.469C83.7654 118.012 84.5488 117.767 85.3513 117.767C86.1538 117.767 86.9371 118.012 87.5964 118.469C87.945 118.733 88.3617 118.892 88.7975 118.927Z" fill="#97BCFF"/>
<path d="M57.4814 112.219L65.8479 108.24" stroke="#231F20" stroke-width="0.682416" stroke-miterlimit="10" stroke-linecap="round"/>
<path d="M56.4578 105.872L63.0635 103.354" stroke="#231F20" stroke-width="0.682416" stroke-miterlimit="10" stroke-linecap="round"/>
<path d="M55.1407 99.4781L56.178 95.2471" stroke="#231F20" stroke-width="0.682416" stroke-miterlimit="10" stroke-linecap="round"/>
<path d="M89.746 100.371L87.4531 97.4438" stroke="#231F20" stroke-width="0.682416" stroke-miterlimit="10" stroke-linecap="round"/>
<path d="M245.699 97.2051H232.924V104.548H245.699V97.2051Z" fill="#5454F1"/>
<path d="M232.924 97.2051H137.918V104.548H232.924V97.2051Z" fill="#7373EF"/>
<path d="M245.699 139.065H232.924V148.851H245.699V139.065Z" fill="#5454F1"/>
<path d="M232.924 139.065H137.918V148.851H232.924V139.065Z" fill="#7373EF"/>
<path d="M252.277 106.732V138.43C252.273 139.448 251.868 140.423 251.148 141.143C250.428 141.862 249.453 142.268 248.435 142.272H152.699C151.681 142.27 150.704 141.865 149.984 141.145C149.264 140.424 148.859 139.448 148.857 138.43V106.732C148.862 105.716 149.269 104.743 149.989 104.026C150.709 103.309 151.683 102.905 152.699 102.903H248.435C249.451 102.907 250.424 103.311 251.143 104.028C251.862 104.745 252.27 105.716 252.277 106.732Z" fill="#231F20"/>
<path d="M232.924 106.739V138.437C232.922 139.028 232.686 139.595 232.268 140.013C231.85 140.431 231.284 140.667 230.692 140.669H134.956C134.365 140.667 133.798 140.431 133.38 140.013C132.962 139.595 132.726 139.028 132.725 138.437V106.739C132.724 106.445 132.781 106.154 132.892 105.882C133.004 105.61 133.168 105.363 133.375 105.154C133.583 104.946 133.829 104.78 134.1 104.667C134.371 104.553 134.662 104.495 134.956 104.494H230.692C230.986 104.495 231.277 104.553 231.548 104.667C231.82 104.78 232.066 104.946 232.273 105.154C232.48 105.363 232.644 105.61 232.756 105.882C232.868 106.154 232.925 106.445 232.924 106.739Z" fill="white"/>
<path d="M230.692 102.903H134.956C133.936 102.907 132.959 103.315 132.239 104.037C131.518 104.76 131.114 105.739 131.114 106.759V138.457C131.118 139.475 131.524 140.45 132.243 141.17C132.963 141.89 133.938 142.296 134.956 142.299H230.692C231.71 142.296 232.685 141.89 233.405 141.17C234.125 140.45 234.531 139.475 234.534 138.457V106.738C234.529 105.722 234.122 104.748 233.403 104.03C232.683 103.312 231.709 102.907 230.692 102.903ZM232.924 138.457C232.922 139.048 232.686 139.615 232.268 140.033C231.85 140.451 231.284 140.687 230.692 140.689H134.956C134.365 140.687 133.798 140.451 133.38 140.033C132.962 139.615 132.726 139.048 132.725 138.457V106.738C132.724 106.445 132.781 106.153 132.892 105.881C133.004 105.609 133.168 105.362 133.375 105.154C133.583 104.945 133.829 104.78 134.1 104.666C134.371 104.553 134.662 104.494 134.956 104.493H230.692C230.986 104.494 231.277 104.553 231.548 104.666C231.82 104.78 232.066 104.945 232.273 105.154C232.48 105.362 232.644 105.609 232.756 105.881C232.868 106.153 232.925 106.445 232.924 106.738V138.457Z" fill="#231F20"/>
<path d="M149.239 129.627C147.844 129.628 146.48 129.216 145.32 128.442C144.16 127.668 143.255 126.567 142.721 125.278C142.186 123.99 142.046 122.572 142.318 121.204C142.59 119.836 143.261 118.579 144.248 117.593C145.234 116.607 146.491 115.935 147.859 115.663C149.227 115.392 150.645 115.532 151.933 116.066C153.221 116.601 154.322 117.505 155.096 118.666C155.87 119.826 156.283 121.19 156.282 122.584C156.28 124.452 155.537 126.242 154.217 127.562C152.897 128.883 151.106 129.625 149.239 129.627ZM149.239 117.146C148.159 117.146 147.104 117.466 146.206 118.066C145.308 118.666 144.608 119.518 144.195 120.516C143.782 121.513 143.674 122.611 143.885 123.67C144.095 124.729 144.615 125.702 145.379 126.465C146.142 127.229 147.115 127.749 148.174 127.959C149.233 128.17 150.331 128.062 151.328 127.649C152.326 127.236 153.178 126.536 153.778 125.638C154.378 124.74 154.698 123.685 154.698 122.605C154.698 121.157 154.123 119.768 153.099 118.745C152.076 117.721 150.687 117.146 149.239 117.146Z" fill="#231F20"/>
<path d="M205.306 119.479H166.654C165.2 119.479 164.02 120.659 164.02 122.114V123.049C164.02 124.503 165.2 125.683 166.654 125.683H205.306C206.761 125.683 207.941 124.503 207.941 123.049V122.114C207.941 120.659 206.761 119.479 205.306 119.479Z" fill="#7373EF"/>
<path d="M219.542 125.683C221.256 125.683 222.647 124.292 222.647 122.578C222.647 120.863 221.256 119.473 219.542 119.473C217.827 119.473 216.437 120.863 216.437 122.578C216.437 124.292 217.827 125.683 219.542 125.683Z" fill="#231F20"/>
<path d="M247.132 183.429L246.128 188.717C245.992 189.37 245.633 189.954 245.112 190.37C244.592 190.786 243.942 191.008 243.276 190.997H232.924V183.429H247.132Z" fill="#5454F1"/>
<path d="M232.924 183.429V190.997H140.34C139.674 191.006 139.026 190.784 138.506 190.368C137.985 189.953 137.625 189.369 137.488 188.717L136.492 183.429H232.924Z" fill="#7373EF"/>
<path d="M252.277 151.089V182.787C252.273 183.805 251.868 184.78 251.148 185.5C250.428 186.219 249.453 186.625 248.435 186.629H152.699C151.681 186.627 150.704 186.222 149.984 185.502C149.264 184.781 148.859 183.805 148.857 182.787V151.089C148.862 150.073 149.269 149.1 149.989 148.383C150.709 147.666 151.683 147.262 152.699 147.26H248.435C249.451 147.264 250.424 147.668 251.143 148.385C251.862 149.101 252.27 150.073 252.277 151.089Z" fill="#231F20"/>
<path d="M232.924 151.096V182.794C232.922 183.385 232.686 183.952 232.268 184.37C231.85 184.788 231.284 185.024 230.692 185.025H134.956C134.365 185.024 133.798 184.788 133.38 184.37C132.962 183.952 132.726 183.385 132.725 182.794V151.096C132.724 150.802 132.781 150.511 132.892 150.239C133.004 149.967 133.168 149.719 133.375 149.511C133.583 149.303 133.829 149.137 134.1 149.024C134.371 148.91 134.662 148.851 134.956 148.851H230.692C230.986 148.851 231.277 148.91 231.548 149.024C231.82 149.137 232.066 149.303 232.273 149.511C232.48 149.719 232.644 149.967 232.756 150.239C232.868 150.511 232.925 150.802 232.924 151.096Z" fill="white"/>
<path d="M230.692 147.26H134.956C133.936 147.264 132.959 147.672 132.239 148.394C131.518 149.117 131.114 150.096 131.114 151.116V182.814C131.118 183.832 131.524 184.807 132.243 185.527C132.963 186.247 133.938 186.653 134.956 186.656H230.692C231.71 186.653 232.685 186.247 233.405 185.527C234.125 184.807 234.531 183.832 234.534 182.814V151.095C234.529 150.079 234.122 149.105 233.403 148.387C232.683 147.669 231.709 147.264 230.692 147.26ZM232.924 182.814C232.922 183.405 232.686 183.972 232.268 184.39C231.85 184.808 231.284 185.044 230.692 185.046H134.956C134.365 185.044 133.798 184.808 133.38 184.39C132.962 183.972 132.726 183.405 132.725 182.814V151.095C132.724 150.801 132.781 150.51 132.892 150.238C133.004 149.966 133.168 149.719 133.375 149.511C133.583 149.302 133.829 149.137 134.1 149.023C134.371 148.91 134.662 148.851 134.956 148.85H230.692C230.986 148.851 231.277 148.91 231.548 149.023C231.82 149.137 232.066 149.302 232.273 149.511C232.48 149.719 232.644 149.966 232.756 150.238C232.868 150.51 232.925 150.801 232.924 151.095V182.814Z" fill="#231F20"/>
<path d="M149.239 173.984C147.844 173.985 146.48 173.573 145.32 172.799C144.16 172.025 143.255 170.924 142.721 169.635C142.186 168.347 142.046 166.929 142.318 165.561C142.59 164.193 143.261 162.936 144.248 161.95C145.234 160.964 146.491 160.292 147.859 160.02C149.227 159.749 150.645 159.889 151.933 160.423C153.221 160.958 154.322 161.862 155.096 163.022C155.87 164.183 156.283 165.547 156.282 166.941C156.28 168.809 155.537 170.599 154.217 171.919C152.897 173.24 151.106 173.982 149.239 173.984ZM149.239 161.503C148.159 161.503 147.104 161.823 146.206 162.423C145.308 163.023 144.608 163.875 144.195 164.873C143.782 165.87 143.674 166.968 143.885 168.027C144.095 169.086 144.615 170.059 145.379 170.822C146.142 171.586 147.115 172.106 148.174 172.316C149.233 172.527 150.331 172.419 151.328 172.006C152.326 171.592 153.178 170.893 153.778 169.995C154.378 169.097 154.698 168.042 154.698 166.962C154.698 165.514 154.123 164.125 153.099 163.102C152.076 162.078 150.687 161.503 149.239 161.503Z" fill="#231F20"/>
<path d="M205.306 163.836H166.654C165.2 163.836 164.02 165.016 164.02 166.471V167.405C164.02 168.86 165.2 170.04 166.654 170.04H205.306C206.761 170.04 207.941 168.86 207.941 167.405V166.471C207.941 165.016 206.761 163.836 205.306 163.836Z" fill="#7373EF"/>
<path d="M219.542 170.04C221.256 170.04 222.647 168.649 222.647 166.935C222.647 165.22 221.256 163.83 219.542 163.83C217.827 163.83 216.437 165.22 216.437 166.935C216.437 168.649 217.827 170.04 219.542 170.04Z" fill="#231F20"/>
<path d="M252.277 62.3747V94.073C252.273 95.0908 251.868 96.066 251.148 96.7857C250.428 97.5054 249.453 97.9114 248.435 97.915H152.699C151.681 97.9132 150.704 97.5078 149.984 96.7877C149.264 96.0675 148.859 95.0914 148.857 94.073V62.3747C148.862 61.3587 149.269 60.386 149.989 59.6688C150.709 58.9517 151.683 58.5482 152.699 58.5464H248.435C249.451 58.55 250.424 58.954 251.143 59.6708C251.862 60.3876 252.27 61.3593 252.277 62.3747Z" fill="#231F20"/>
<path d="M232.924 62.3814V94.0796C232.922 94.6709 232.686 95.2374 232.268 95.6555C231.85 96.0736 231.284 96.3093 230.692 96.3111H134.956C134.365 96.3093 133.798 96.0736 133.38 95.6555C132.962 95.2374 132.726 94.6709 132.725 94.0796V62.3814C132.724 62.0874 132.781 61.7962 132.892 61.5243C133.004 61.2524 133.168 61.0051 133.375 60.7966C133.583 60.5882 133.829 60.4225 134.1 60.3092C134.371 60.1959 134.662 60.1371 134.956 60.1362H230.692C230.986 60.1371 231.277 60.1959 231.548 60.3092C231.82 60.4225 232.066 60.5882 232.273 60.7966C232.48 61.0051 232.644 61.2524 232.756 61.5243C232.868 61.7962 232.925 62.0874 232.924 62.3814Z" fill="white"/>
<path d="M230.692 58.5464H134.956C133.936 58.55 132.959 58.9578 132.239 59.6805C131.518 60.4032 131.114 61.3818 131.114 62.402V94.1003C131.118 95.1181 131.524 96.0933 132.243 96.813C132.963 97.5327 133.938 97.9387 134.956 97.9423H230.692C231.71 97.9387 232.685 97.5327 233.405 96.813C234.125 96.0933 234.531 95.1181 234.534 94.1003V62.3816C234.529 61.3649 234.122 60.3915 233.403 59.6732C232.683 58.955 231.709 58.55 230.692 58.5464ZM232.924 94.1003C232.922 94.6915 232.686 95.2581 232.268 95.6762C231.85 96.0943 231.284 96.33 230.692 96.3318H134.956C134.365 96.33 133.798 96.0943 133.38 95.6762C132.962 95.2581 132.726 94.6915 132.725 94.1003V62.3816C132.724 62.0876 132.781 61.7964 132.892 61.5245C133.004 61.2526 133.168 61.0053 133.375 60.7968C133.583 60.5883 133.829 60.4227 134.1 60.3094C134.371 60.1961 134.662 60.1373 134.956 60.1364H230.692C230.986 60.1373 231.277 60.1961 231.548 60.3094C231.82 60.4227 232.066 60.5883 232.273 60.7968C232.48 61.0053 232.644 61.2526 232.756 61.5245C232.868 61.7964 232.925 62.0876 232.924 62.3816V94.1003Z" fill="#231F20"/>
<path d="M149.239 85.2696C147.844 85.271 146.48 84.8585 145.32 84.0844C144.16 83.3103 143.255 82.2095 142.721 80.9211C142.186 79.6327 142.046 78.2147 142.318 76.8467C142.59 75.4786 143.261 74.2219 144.248 73.2356C145.234 72.2493 146.491 71.5778 147.859 71.306C149.227 71.0342 150.645 71.1744 151.933 71.7088C153.221 72.2432 154.322 73.1478 155.096 74.3081C155.87 75.4684 156.283 76.8323 156.282 78.2271C156.28 80.0943 155.537 81.8846 154.217 83.2049C152.897 84.5252 151.106 85.2678 149.239 85.2696ZM149.239 72.7882C148.159 72.7882 147.104 73.1084 146.206 73.7083C145.308 74.3082 144.608 75.1608 144.195 76.1584C143.782 77.1559 143.674 78.2536 143.885 79.3126C144.095 80.3716 144.615 81.3444 145.379 82.1079C146.142 82.8714 147.115 83.3913 148.174 83.602C149.233 83.8126 150.331 83.7045 151.328 83.2913C152.326 82.8781 153.178 82.1784 153.778 81.2806C154.378 80.3828 154.698 79.3273 154.698 78.2476C154.698 76.7996 154.123 75.411 153.099 74.3872C152.076 73.3634 150.687 72.7882 149.239 72.7882Z" fill="#231F20"/>
<path d="M205.306 75.1221H166.654C165.2 75.1221 164.02 76.3014 164.02 77.7562V78.6911C164.02 80.1459 165.2 81.3252 166.654 81.3252H205.306C206.761 81.3252 207.941 80.1459 207.941 78.6911V77.7562C207.941 76.3014 206.761 75.1221 205.306 75.1221Z" fill="#7373EF"/>
<path d="M219.542 81.3257C221.256 81.3257 222.647 79.9356 222.647 78.2207C222.647 76.5059 221.256 75.1157 219.542 75.1157C217.827 75.1157 216.437 76.5059 216.437 78.2207C216.437 79.9356 217.827 81.3257 219.542 81.3257Z" fill="#231F20"/>
</g>
<defs>
<clipPath id="clip0_1546_1279">
<rect width="288" height="211.44" fill="white" transform="translate(19 47)"/>
</clipPath>
</defs>
</svg>
