<svg width="36" height="34" viewBox="0 0 36 34" fill="none" xmlns="http://www.w3.org/2000/svg">
<path d="M16.082 28.5603C15.1628 28.5604 14.3698 27.9062 14.2619 27.0188L13.4871 20.6424L7.11978 19.5468C6.12291 19.3753 5.46127 18.4694 5.64198 17.5233C5.82276 16.5773 6.77766 15.9496 7.77433 16.121L15.4808 17.4469C16.2761 17.5838 16.8833 18.1985 16.976 18.9604L17.9067 26.6199C18.0227 27.575 17.3009 28.4386 16.2945 28.5487C16.2232 28.5565 16.1521 28.5603 16.082 28.5603Z" fill="#55696E"/>
<path d="M22.2558 12.5878C22.074 11.8055 21.2585 11.3109 20.4338 11.4836L15.8551 12.4418L15.6744 11.8727C15.6744 11.8727 13.5228 11.8661 12.4563 11.7944L13.3365 14.5666C13.5681 15.2958 14.3518 15.7275 15.1294 15.5647L21.0922 14.3169C21.9167 14.1443 22.4377 13.3702 22.2558 12.5878Z" fill="#A5593F"/>
<path d="M15.6746 11.8717L14.6593 8.67419C14.4157 7.90701 13.5629 7.47248 12.7546 7.7037C11.9461 7.93485 11.4883 8.74411 11.7319 9.51122L12.9508 13.3503L15.6746 11.8717Z" fill="#F2C41B"/>
<path d="M27.423 15.2224L33.8595 15.5875L34.0615 14.5088C34.1119 14.2397 33.9229 13.9828 33.6393 13.935L21.9029 11.956C21.6193 11.9081 21.3487 12.0875 21.2983 12.3566L20.8804 14.5882L27.423 15.2224Z" fill="#A5C8CD"/>
<path d="M33.8033 15.8892L33.8719 15.5229L20.9169 14.3945L20.7737 15.1592C20.7283 15.4022 20.827 15.6492 21.0309 15.8024L21.2895 15.9968C21.402 16.0813 21.5595 16.0861 21.6775 16.0086L22.2686 15.6203C22.3866 15.5428 22.544 15.5476 22.6565 15.6321L23.2201 16.0557C23.3326 16.1402 23.4901 16.145 23.6081 16.0675L24.1993 15.6792C24.3173 15.6018 24.4748 15.6066 24.5873 15.6911L25.1511 16.1147C25.2636 16.1993 25.421 16.204 25.5391 16.1266L26.1304 15.7382C26.2484 15.6608 26.4058 15.6656 26.5183 15.7501L27.0822 16.1737C27.1947 16.2583 27.3521 16.2631 27.4702 16.1856L28.0616 15.7972C28.1796 15.7198 28.3371 15.7246 28.4495 15.8091L29.0135 16.2328C29.126 16.3173 29.2834 16.3221 29.4014 16.2446L29.9927 15.8562C30.1107 15.7788 30.2681 15.7836 30.3806 15.868L30.9447 16.2918C31.0572 16.3763 31.2146 16.3811 31.3326 16.3036L31.9243 15.9151C32.0423 15.8376 32.1997 15.8424 32.3122 15.9269L32.886 16.335C33.0065 16.4207 33.1713 16.4237 33.2952 16.3424L33.6579 16.1043C33.7346 16.0539 33.787 15.9764 33.8033 15.8892Z" fill="#C8E6EB"/>
<path d="M22.0942 15.6367L22.6996 12.4031C22.8106 11.8101 22.3947 11.2447 21.7696 11.1392L19.2202 10.7093C18.5966 10.6042 17.9992 11.0001 17.8883 11.5918L17.2828 14.8253C17.1718 15.4184 17.5876 15.9838 18.2128 16.0892L20.7621 16.5191C21.3873 16.6246 21.983 16.23 22.0942 15.6367ZM20.9329 15.6082L19.1171 15.302L19.7833 11.7442L21.5991 12.0504C21.6606 12.0608 21.6956 12.0973 21.7109 12.1183C21.7263 12.1392 21.7504 12.1829 21.7395 12.2413L21.134 15.4748C21.123 15.5333 21.0844 15.5665 21.0625 15.5811C21.0405 15.5956 20.9944 15.6185 20.9329 15.6082Z" fill="#E64937"/>
<path d="M31.9891 33.9917C31.7237 33.9917 31.4581 33.8971 31.2533 33.7071L15.0562 18.68C14.6405 18.2943 14.633 17.6619 15.0394 17.2674C15.4459 16.8729 16.1124 16.8657 16.528 17.2515L32.725 32.2785C33.1408 32.6643 33.1482 33.2966 32.7418 33.6912C32.5356 33.8913 32.2624 33.9917 31.9891 33.9917Z" fill="#783C28"/>
<path d="M15.7922 33.9918C15.5188 33.9918 15.2457 33.8913 15.0394 33.6912C14.633 33.2966 14.6405 32.6643 15.0562 32.2785L31.2533 17.2515C31.6691 16.8657 32.3356 16.8729 32.7419 17.2674C33.1483 17.6619 33.1409 18.2943 32.7251 18.68L16.528 33.7071C16.3233 33.8971 16.0576 33.9918 15.7922 33.9918Z" fill="#A55A3C"/>
<path d="M1.3735 33.9345C0.392903 33.6927 -0.195397 32.7424 0.0594182 31.8118L3.87849 17.8659C4.13337 16.9354 5.13488 16.3771 6.1154 16.6189C7.096 16.8607 7.6843 17.811 7.42955 18.7416L3.61048 32.6875C3.3556 33.6179 2.35437 34.1763 1.3735 33.9345Z" fill="#748488"/>
<path d="M8.56428 18.9605L3.9054 17.7282L6.85384 7.69033C7.17126 6.60983 8.35157 5.97804 9.49021 6.27918L13.1669 7.25167C14.3055 7.55288 14.9713 8.67294 14.654 9.75344L12.581 16.8106C12.0975 18.4568 10.2991 19.4194 8.56428 18.9605Z" fill="#FFDA52"/>
<path d="M12.4502 6.01312C14.2 6.01312 15.6185 4.66704 15.6185 3.00656C15.6185 1.34608 14.2 0 12.4502 0C10.7004 0 9.28186 1.34608 9.28186 3.00656C9.28186 4.66704 10.7004 6.01312 12.4502 6.01312Z" fill="#BA6746"/>
<path d="M32.6314 29.8797H15.1491C14.5677 29.8797 14.0964 29.4324 14.0964 28.8808C14.0964 28.3291 14.5677 27.8818 15.1491 27.8818H32.6314C33.2128 27.8818 33.6841 28.3291 33.6841 28.8808C33.6841 29.4324 33.2128 29.8797 32.6314 29.8797Z" fill="#A55A3C"/>
<path d="M34.9377 19.158H12.8425C12.4303 19.158 12.0962 18.8409 12.0962 18.4498V17.2023C12.0962 16.8112 12.4303 16.4941 12.8425 16.4941H34.9378C35.3499 16.4941 35.684 16.8112 35.684 17.2023V18.4498C35.684 18.8409 35.3499 19.158 34.9377 19.158Z" fill="#783C28"/>
<path d="M18.2052 13.8615L13.0045 12.9531L12.3365 11.4514L10.5174 11.0947L9.52557 12.5868L10.5162 14.8099C10.7178 15.2566 11.1413 15.5778 11.6449 15.6657L17.6517 16.7149C18.4827 16.8602 19.2792 16.3378 19.4319 15.5509C19.5847 14.7628 19.0355 14.0066 18.2052 13.8615Z" fill="#BA6746"/>
<path d="M12.3364 11.453L10.7868 7.96925C10.4545 7.23271 9.55583 6.89074 8.7798 7.20647C8.00364 7.5218 7.64369 8.37448 7.97599 9.11102L9.52551 12.5883L12.3364 11.453Z" fill="#F2C41B"/>
</svg>
