<svg width="48" height="45" viewBox="0 0 48 45" fill="none" xmlns="http://www.w3.org/2000/svg">
<path d="M43.6453 21.1019C43.6381 21.1595 43.2726 21.0638 43.2674 21.1214C43.0573 23.3152 42.8277 25.125 42.5404 26.7599C42.3458 27.871 42.1244 28.9009 41.8638 29.9162C41.8 30.1703 41.7331 30.4234 41.663 30.6765C41.4231 31.5423 41.1543 32.4091 40.8464 33.3188C40.4808 34.4026 40.0607 35.5469 39.5746 36.8221C39.5746 37.5198 36.1733 38.0847 31.978 38.0847C27.7827 38.0847 24.3814 37.5198 24.3814 36.8221C23.5349 34.6195 22.8872 32.7814 22.3784 31.0283C21.4517 27.8387 20.9872 24.9286 20.6309 20.6074H43.3251C43.3117 20.7218 43.6577 20.9885 43.6453 21.1019Z" fill="#1C1F34"/>
<path d="M25.9765 20.6074C24.022 24.3745 22.8377 28.9996 22.3784 31.0283C21.4517 27.8387 20.9872 24.9286 20.6309 20.6074H25.9765Z" fill="#1C1F34"/>
<path d="M44.1848 19.7939C43.9583 20.133 44.3063 20.7643 44.0777 20.9255C44.0304 20.9587 43.3672 20.5776 43.325 20.607C39.7753 21.546 32.1334 22.0034 25.5964 21.3721C23.8252 21.2011 22.1363 20.95 20.6308 20.607C19.9512 20.1516 18.9626 19.4324 19.3745 16.8379H44.5803C44.8192 18.3389 44.5607 19.2311 44.1848 19.7939Z" fill="#1C1F34"/>
<path d="M28.5765 16.8379C27.4232 18.0096 26.4305 19.6268 25.5964 21.3721C23.8252 21.2011 22.1363 20.95 20.6308 20.607C19.9512 20.1516 18.9626 19.4324 19.3745 16.8379H28.5765Z" fill="#1C1F34"/>
<path d="M31.9775 19.1476C38.938 19.1476 44.5807 18.1131 44.5807 16.837C44.5807 15.5609 38.938 14.5264 31.9775 14.5264C25.0169 14.5264 19.3743 15.5609 19.3743 16.837C19.3743 18.1131 25.0169 19.1476 31.9775 19.1476Z" fill="#1C1F34"/>
<path d="M41.8636 29.9158C41.7998 30.1699 41.7329 30.4229 41.6628 30.676C41.4229 31.5418 41.1541 32.4086 40.8462 33.3184C36.6993 32.5376 30.8008 29.0588 27.6425 23.0803L28.7917 22.7988C29.0285 22.9591 36.0444 29.2767 41.8636 29.9158Z" fill="#1C1F34"/>
<path d="M41.6096 31.871C36.0139 30.8072 28.1129 25.6145 26.5638 21.4563C26.5398 21.3921 26.5169 21.3279 26.4962 21.2647C26.415 21.0175 26.4299 20.7944 26.5099 20.6071C26.8142 19.8842 28.0739 19.6854 28.448 20.6071C28.456 20.6229 28.4617 20.6386 28.4674 20.6545C28.5796 20.9648 28.7317 21.2815 28.9183 21.5993C31.0886 25.2904 37.9806 29.3351 42.0637 29.4446C45.1436 29.5256 46.6241 27.3665 43.2662 21.1217C43.2868 20.9502 43.3051 20.7787 43.3246 20.6072C43.5751 20.4388 43.9103 20.2042 44.185 19.7949C50.0655 30.2495 46.846 32.8664 41.6096 31.871Z" fill="#1C1F34"/>
<path d="M20.7503 44.558C20.7503 44.558 20.3312 44.2414 19.3086 44.429C18.4292 44.5903 14.3513 43.4685 13.7643 43.2173C13.754 43.2124 13.7458 43.2085 13.7376 43.2046C13.7376 43.2046 13.5646 42.8606 12.7922 42.8235C12.7335 42.8206 12.6707 42.8196 12.6048 42.8206C11.6718 42.8362 7.10376 41.1515 7.11612 40.2828C7.11612 40.2828 7.10994 40.2779 7.09655 40.2691C6.99872 40.1997 6.53121 39.8811 5.87009 39.6583C5.7805 39.6281 5.68679 39.5997 5.58999 39.5733C4.69306 39.331 1.16506 36.4688 1.11357 35.6333C1.11357 35.6333 1.11254 35.6333 1.11254 35.6323C0.774771 35.4378 0.482315 35.0909 0.282539 34.7772C0.0817329 34.4616 -0.0263933 34.1792 0.00552966 34.1157C0.113656 33.8958 1.82411 34.6004 3.33994 31.9688L21.9037 37.7733C21.9037 37.7733 22.9602 42.1111 20.7503 44.558Z" fill="#1C1F34"/>
<path d="M15.3284 40.3242C15.3129 40.3838 14.7929 42.2376 13.7642 43.2177C13.7539 43.2128 13.7456 43.2089 13.7374 43.205C13.7374 43.205 13.5644 42.861 12.7921 42.8239C13.7353 42.0881 15.279 40.378 15.3284 40.3242Z" fill="#1C1F34"/>
<path d="M8.38985 38.9932C7.69269 39.8697 7.16339 40.2264 7.09646 40.2694C6.99863 40.2 6.53111 39.8814 5.87 39.6586C7.11808 39.5492 8.34866 39.0108 8.38985 38.9932Z" fill="#1C1F34"/>
<path d="M2.54282 35.3168C2.24316 35.4467 1.6253 35.6168 1.11247 35.6324C0.774703 35.4379 0.482247 35.091 0.282471 34.7773C0.972419 35.0343 2.54282 35.3168 2.54282 35.3168Z" fill="#1C1F34"/>
<path d="M8.77447 30.9601C10.4526 31.5008 18.2229 34.5023 20.855 36.4666C23.4706 38.4185 20.8423 40.1286 18.8427 39.8633C14.205 39.248 4.21021 34.0026 3.53735 33.355C2.04953 31.9231 5.15719 29.7944 8.77447 30.9601Z" fill="#1C1F34"/>
<path d="M10.9725 33.1293C11.5324 33.3177 14.1322 34.4011 15.0269 35.1697C15.916 35.9334 15.0768 36.722 14.4152 36.6581C12.8808 36.51 9.51626 34.5296 9.28539 34.2715C8.77493 33.7007 9.76557 32.7231 10.9725 33.1293Z" fill="#1C1F34"/>
<path d="M32.3208 2.07751C23.7572 13.0495 14.5438 31.7971 13.6263 34.8919C13.3415 35.4294 10.8791 35.0238 11.0899 33.9401C12.3164 27.6401 22.3701 9.87264 30.3518 0.408451C30.5037 0.227278 30.7273 0.108353 30.9625 0.0468866C32.1643 -0.271681 33.0808 1.10226 32.3208 2.07751Z" fill="#1C1F34"/>
<path d="M32.3208 2.07751C23.7572 13.0495 14.5438 31.7971 13.6263 34.8919C13.5346 35.0649 13.2185 35.1401 12.8385 35.1264C13.4419 33.431 19.8574 15.6772 26.4418 7.95342C30.6484 3.01953 31.0058 1.00063 30.6402 0.1749C30.7411 0.118222 30.8503 0.0762026 30.9625 0.0468866C32.1643 -0.271681 33.0808 1.10226 32.3208 2.07751Z" fill="#1C1F34"/>
</svg>
