<svg width="40" height="39" viewBox="0 0 40 39" fill="none" xmlns="http://www.w3.org/2000/svg">
<path d="M5.89877 24.3712C8.87217 24.3712 11.2826 22.0839 11.2826 19.2623C11.2826 16.4407 8.87217 14.1533 5.89877 14.1533C2.92537 14.1533 0.514954 16.4407 0.514954 19.2623C0.514954 22.0839 2.92537 24.3712 5.89877 24.3712Z" fill="#FCEA81"/>
<path d="M2.28585 19.2625C2.28585 16.4408 3.90357 14.1533 5.89909 14.1533C2.92555 14.1533 0.514954 16.4408 0.514954 19.2625C0.514954 22.0842 2.92547 24.3717 5.89909 24.3717C3.90357 24.3718 2.28585 22.0843 2.28585 19.2625Z" fill="#EDD97C"/>
<path d="M10.4869 18.0766C9.36037 18.0292 8.46362 17.1472 8.46362 16.067C8.46362 14.9566 9.41207 14.0557 10.5832 14.0557C10.6885 14.0557 10.7921 14.0626 10.8939 14.0772" fill="#E0B394"/>
<path d="M29.4582 18.0766C30.5847 18.0292 31.4824 17.1472 31.4824 16.067C31.4824 14.9566 30.533 14.0557 29.3619 14.0557C29.2565 14.0557 29.152 14.0634 29.0511 14.0772" fill="#E0B394"/>
<path d="M29.8758 30.6965V38.5228H10.0704V30.6965C10.0704 28.098 12.0292 25.9341 14.622 25.4608C14.9673 25.397 15.3243 25.3643 15.6895 25.3643H24.2567C24.6219 25.3643 24.9789 25.397 25.3241 25.4608C27.9171 25.9341 29.8758 28.098 29.8758 30.6965Z" fill="#EA8249"/>
<path d="M25.3243 25.4608L24.016 32.3319L19.9732 29.6067L15.9294 32.3319L14.6221 25.4608C14.9674 25.397 15.3244 25.3643 15.6896 25.3643H24.2567C24.622 25.3643 24.9791 25.397 25.3243 25.4608Z" fill="#D36F3D"/>
<path d="M23.9264 20.3848V25.1743C23.9264 27.2461 22.1562 28.926 19.9729 28.926C17.789 28.926 16.0195 27.2461 16.0195 25.1743V20.3848H23.9264Z" fill="#E0B394"/>
<path d="M19.1511 25.3643H15.6892C12.5861 25.3643 10.0704 27.7514 10.0704 30.6962V38.5226H13.5324V30.6962C13.5325 27.7514 16.048 25.3643 19.1511 25.3643Z" fill="#D36F3D"/>
<path d="M16.9067 26.7711L13.1774 24.2C11.2067 22.8413 10.1406 20.5944 10.3749 18.2935L11.0217 11.9415C11.4672 7.5667 15.3413 4.22852 19.973 4.22852C24.6046 4.22852 28.4788 7.5667 28.9243 11.9415L29.5711 18.2935C29.8054 20.5944 28.7394 22.8411 26.7686 24.2L23.0393 26.7711C21.2109 28.0316 18.7351 28.0316 16.9067 26.7711Z" fill="#F7CBA4"/>
<path d="M23.5292 21.5148C23.5292 21.5148 23.4775 21.6355 23.3684 21.826C23.3421 21.8751 23.3112 21.9269 23.2767 21.9829C23.2358 22.038 23.1886 22.0941 23.1377 22.157C23.0868 22.22 23.0287 22.2838 22.9669 22.3545C22.9451 22.3812 22.9215 22.4036 22.896 22.4269C22.8869 22.4355 22.8769 22.4441 22.8669 22.4527C22.8315 22.4837 22.7952 22.5165 22.7579 22.5493C22.6834 22.6156 22.6026 22.6812 22.5181 22.7502C22.429 22.8122 22.3337 22.8709 22.2355 22.9347C22.1864 22.9666 22.1356 22.9976 22.0837 23.0286C22.032 23.058 21.9765 23.0821 21.9202 23.1088C21.8094 23.1623 21.694 23.214 21.575 23.2657C21.3297 23.345 21.0745 23.4382 20.8019 23.4769C20.5329 23.5364 20.2523 23.5459 19.9725 23.5588C19.6927 23.5459 19.4119 23.5373 19.143 23.4778C18.8705 23.439 18.6152 23.3459 18.3699 23.2666C18.2509 23.2158 18.1355 23.164 18.0237 23.1106C17.9683 23.0839 17.9129 23.0597 17.8602 23.0304C17.8093 22.9985 17.7585 22.9683 17.7094 22.9364C17.6113 22.8726 17.515 22.8131 17.426 22.7519C17.3414 22.6829 17.2615 22.6165 17.1861 22.551C17.1489 22.5174 17.1134 22.4855 17.078 22.4536C17.0653 22.4424 17.0525 22.4311 17.0398 22.4199C17.018 22.3992 16.9971 22.3794 16.9789 22.3561C16.9199 22.288 16.8626 22.2251 16.8127 22.163C16.7636 22.1001 16.7155 22.0449 16.6755 21.9897C16.6392 21.9311 16.6056 21.8776 16.5774 21.8285C16.4639 21.6319 16.4166 21.5146 16.4166 21.5146C16.4166 21.5146 16.5511 21.5535 16.7582 21.6328C16.8109 21.6517 16.8654 21.675 16.9263 21.6983C16.9908 21.7164 17.0571 21.7397 17.128 21.7621C17.1998 21.7845 17.2715 21.8121 17.3479 21.838C17.4233 21.8656 17.5087 21.8836 17.5932 21.9078C17.6777 21.931 17.7621 21.9595 17.8503 21.9845C17.942 22.0035 18.0339 22.0259 18.1283 22.0474C18.1756 22.0578 18.2219 22.0707 18.2691 22.0828C18.3172 22.0932 18.3673 22.0992 18.4163 22.1087C18.5153 22.1251 18.6143 22.144 18.7134 22.1656C18.9196 22.1837 19.1231 22.2268 19.3357 22.2345C19.5456 22.2604 19.76 22.2535 19.9725 22.2655C20.1861 22.2535 20.4005 22.2613 20.6103 22.2354C20.8229 22.2285 21.0264 22.1845 21.2327 22.1664C21.3317 22.1457 21.4307 22.1267 21.5298 22.1103C21.5788 22.1008 21.6288 22.0948 21.6769 22.0844C21.7242 22.0715 21.7714 22.0595 21.8177 22.0491C21.9122 22.0276 22.004 22.0042 22.0957 21.9862C22.1848 21.9612 22.2693 21.9328 22.3537 21.9094C22.4373 21.8853 22.5245 21.8663 22.5972 21.8396C22.6717 21.8155 22.7417 21.7887 22.8126 21.7681C22.8825 21.7456 22.9479 21.7232 23.0124 21.7052C23.076 21.6793 23.1323 21.6543 23.186 21.6344C23.3975 21.551 23.5292 21.5148 23.5292 21.5148Z" fill="#F2F2F2"/>
<path d="M22.8963 22.4268C22.8871 22.4355 22.8771 22.4441 22.8672 22.4527C22.8317 22.4838 22.7954 22.5165 22.7581 22.5493C22.6836 22.6156 22.6028 22.6812 22.5183 22.7502C22.4292 22.8122 22.3339 22.8708 22.2357 22.9346C22.1866 22.9665 22.1358 22.9975 22.0839 23.0286C22.0322 23.058 21.9767 23.082 21.9205 23.1088C21.8096 23.1622 21.6942 23.214 21.5752 23.2657C21.3299 23.345 21.0747 23.4381 20.8021 23.4769C20.5332 23.5364 20.2525 23.5459 19.9727 23.5588C19.6929 23.5459 19.4121 23.5373 19.1432 23.4778C18.8707 23.439 18.6154 23.3459 18.3701 23.2666C18.2511 23.2157 18.1357 23.164 18.0239 23.1106C17.9685 23.0838 17.9131 23.0597 17.8604 23.0303C17.8095 22.9984 17.7587 22.9683 17.7096 22.9364C17.6115 22.8726 17.5152 22.8131 17.4262 22.7519C17.3417 22.6829 17.2617 22.6165 17.1863 22.551C17.1491 22.5174 17.1136 22.4855 17.0782 22.4536C17.0655 22.4423 17.0527 22.4311 17.04 22.4199C17.0691 22.4294 17.0982 22.4389 17.1281 22.4484C17.1999 22.4708 17.2716 22.4975 17.348 22.5234C17.4234 22.5518 17.5088 22.57 17.5933 22.5941C17.6778 22.6174 17.7623 22.645 17.8504 22.6708C17.9422 22.689 18.034 22.7122 18.1284 22.7338C18.1757 22.7441 18.222 22.7562 18.2692 22.7682C18.3174 22.7786 18.3674 22.7846 18.4164 22.7941C18.5154 22.8105 18.6145 22.8303 18.7135 22.851C18.9197 22.8699 19.1233 22.913 19.3358 22.92C19.5457 22.9467 19.7601 22.9389 19.9727 22.9519C20.1862 22.9398 20.4006 22.9476 20.6105 22.9209C20.823 22.914 21.0266 22.8708 21.2328 22.8528C21.3318 22.8321 21.4309 22.8122 21.5299 22.7959C21.579 22.7864 21.6289 22.7804 21.677 22.77C21.7243 22.758 21.7716 22.7459 21.8179 22.7356C21.9124 22.714 22.0041 22.6907 22.0958 22.6727C22.1849 22.6468 22.2694 22.6183 22.3538 22.5959C22.4374 22.5718 22.5246 22.552 22.5973 22.5261C22.6719 22.5011 22.7418 22.4752 22.8127 22.4537C22.8408 22.445 22.869 22.4355 22.8963 22.4268Z" fill="#4D4D4D"/>
<path d="M15.9285 18.5403C15.5522 18.5403 15.2471 18.2508 15.2471 17.8937V16.8595C15.2471 16.5024 15.5522 16.2129 15.9285 16.2129C16.3048 16.2129 16.6099 16.5024 16.6099 16.8595V17.8937C16.6099 18.2508 16.3048 18.5403 15.9285 18.5403Z" fill="#4D4D4D"/>
<path d="M22.4592 15.2662C22.4592 15.2662 22.461 15.2491 22.4671 15.2196C22.4741 15.1911 22.4812 15.1459 22.4964 15.0949C22.5033 15.0685 22.5121 15.041 22.5221 15.0108C22.5353 14.9801 22.553 14.9492 22.5718 14.9143C22.5905 14.8791 22.614 14.8444 22.6387 14.8053C22.6636 14.7657 22.6933 14.7356 22.7237 14.6973C22.7546 14.6605 22.7893 14.6249 22.8257 14.5866C22.8642 14.552 22.9059 14.518 22.9502 14.4837C23.0369 14.4112 23.1429 14.3588 23.2535 14.3005C23.3677 14.2546 23.489 14.2049 23.619 14.1819C23.7476 14.1501 23.8825 14.1427 24.0171 14.1367C24.1516 14.1426 24.2867 14.1494 24.4154 14.181C24.5454 14.2038 24.6667 14.2537 24.7811 14.2992C24.8917 14.3574 24.9978 14.4098 25.0846 14.4824C25.1289 14.5167 25.1707 14.5508 25.2092 14.5852C25.2455 14.6236 25.2802 14.6596 25.3112 14.6961C25.3412 14.7342 25.3724 14.7655 25.3952 14.8036C25.4181 14.8416 25.4402 14.8756 25.4582 14.91C25.4762 14.9444 25.4935 14.9748 25.5066 15.0054C25.5185 15.0373 25.529 15.0662 25.5369 15.0935C25.5542 15.1463 25.5613 15.1917 25.568 15.2202C25.5738 15.2496 25.575 15.2663 25.575 15.2663C25.575 15.2663 25.5562 15.2658 25.5244 15.2629C25.4935 15.2592 25.4456 15.2572 25.3926 15.2499C25.3652 15.2472 25.3372 15.2424 25.3064 15.2385C25.2736 15.2371 25.2412 15.2327 25.2061 15.2302C25.1371 15.2233 25.0652 15.213 24.9861 15.2101C24.9472 15.2077 24.9095 15.2023 24.8701 15.1993C24.8293 15.1987 24.789 15.1968 24.7491 15.1939C24.6707 15.1843 24.5857 15.1899 24.5066 15.1805C24.4235 15.1834 24.3439 15.1737 24.2615 15.1762C24.1805 15.1704 24.0985 15.1765 24.0173 15.171C23.936 15.1763 23.854 15.1696 23.7728 15.1752C23.6904 15.1724 23.6107 15.1824 23.5274 15.1792C23.4483 15.1886 23.363 15.1828 23.2846 15.1925C23.2447 15.1953 23.2044 15.1974 23.1636 15.1978C23.1242 15.2009 23.0867 15.2066 23.0476 15.2089C22.9669 15.213 22.8998 15.2203 22.8325 15.2258C22.7972 15.2284 22.7641 15.2308 22.7335 15.233C22.7009 15.2385 22.6711 15.2448 22.6427 15.2483C22.5878 15.2576 22.5397 15.2597 22.5092 15.2634C22.4773 15.2662 22.4592 15.2662 22.4592 15.2662Z" fill="#666666"/>
<path d="M14.3705 15.2662C14.3705 15.2662 14.3723 15.2491 14.3784 15.2196C14.3854 15.1911 14.3925 15.1459 14.4077 15.0949C14.4146 15.0685 14.4234 15.041 14.4334 15.0108C14.4466 14.9801 14.4644 14.9492 14.4832 14.9143C14.5018 14.8791 14.5253 14.8444 14.55 14.8053C14.5749 14.7657 14.6046 14.7356 14.635 14.6973C14.6659 14.6605 14.7006 14.6249 14.737 14.5866C14.7755 14.552 14.8172 14.518 14.8615 14.4837C14.9483 14.4112 15.0543 14.3588 15.1648 14.3005C15.279 14.2546 15.4004 14.2049 15.5303 14.1819C15.6589 14.1501 15.7939 14.1427 15.9284 14.1367C16.063 14.1426 16.198 14.1494 16.3267 14.181C16.4567 14.2038 16.5781 14.2537 16.6924 14.2992C16.803 14.3574 16.9091 14.4098 16.9959 14.4824C17.0402 14.5167 17.082 14.5508 17.1205 14.5852C17.1568 14.6236 17.1915 14.6596 17.2226 14.6961C17.2525 14.7342 17.2837 14.7655 17.3065 14.8036C17.3294 14.8416 17.3516 14.8756 17.3696 14.91C17.3875 14.9444 17.4048 14.9748 17.4179 15.0054C17.4298 15.0373 17.4404 15.0662 17.4482 15.0935C17.4655 15.1463 17.4726 15.1917 17.4793 15.2202C17.4851 15.2496 17.4863 15.2663 17.4863 15.2663C17.4863 15.2663 17.4676 15.2658 17.4358 15.2629C17.4048 15.2592 17.3569 15.2572 17.3039 15.2499C17.2765 15.2472 17.2485 15.2424 17.2177 15.2385C17.1849 15.2371 17.1525 15.2327 17.1174 15.2302C17.0484 15.2233 16.9765 15.213 16.8974 15.2101C16.8585 15.2077 16.8208 15.2023 16.7814 15.1993C16.7406 15.1987 16.7004 15.1968 16.6604 15.1939C16.5821 15.1843 16.497 15.1899 16.4179 15.1805C16.3348 15.1834 16.2552 15.1737 16.1729 15.1762C16.0918 15.1704 16.0098 15.1765 15.9286 15.171C15.8472 15.1763 15.7653 15.1696 15.6841 15.1752C15.6017 15.1724 15.5221 15.1824 15.4387 15.1792C15.3596 15.1886 15.2743 15.1828 15.196 15.1925C15.156 15.1953 15.1157 15.1974 15.0749 15.1978C15.0355 15.2009 14.9979 15.2066 14.9589 15.2089C14.8782 15.213 14.8112 15.2203 14.7439 15.2258C14.7085 15.2284 14.6754 15.2308 14.6448 15.233C14.6122 15.2385 14.5824 15.2448 14.554 15.2483C14.4991 15.2576 14.451 15.2597 14.4205 15.2634C14.3886 15.2662 14.3705 15.2662 14.3705 15.2662Z" fill="#666666"/>
<path d="M24.0173 18.5393C23.641 18.5393 23.3359 18.2498 23.3359 17.8927V16.8585C23.3359 16.5014 23.641 16.2119 24.0173 16.2119C24.3936 16.2119 24.6987 16.5014 24.6987 16.8585V17.8927C24.6987 18.2498 24.3936 18.5393 24.0173 18.5393Z" fill="#4D4D4D"/>
<path d="M21.0177 15.6953V18.7559C21.0177 19.3034 20.5499 19.7473 19.9729 19.7473C19.396 19.7473 18.9282 19.3034 18.9282 18.7559V15.6953" fill="#E0B394"/>
<path d="M12.6955 19.545C12.6328 20.5511 12.9781 21.5408 13.6613 22.3124L17.559 26.8575C17.7625 27.0877 17.9933 27.2808 18.2431 27.4351C17.7743 27.28 17.3237 27.0575 16.9067 26.7705L13.1773 24.1997C11.2067 22.841 10.1411 20.5943 10.3755 18.2933L11.0215 11.9412C11.463 7.60905 15.266 4.29337 19.8384 4.23047C17.0221 4.2951 13.833 6.81422 13.6667 9.49713L12.6955 19.545Z" fill="#E8BA97"/>
<path d="M29.4612 9.65564H28.9216C28.9216 7.31071 27.9205 5.18811 26.3006 3.65095C25.0996 2.51122 23.5588 1.69396 21.8353 1.34823H21.8351V0.577092C21.8351 0.258375 21.5628 0 21.227 0H18.7185C18.3827 0 18.1104 0.258375 18.1104 0.577092V1.3483C14.0622 2.16135 11.0243 5.57183 11.0243 9.65557H10.4842C10.3338 9.65557 10.2043 9.75632 10.1746 9.89626L9.75486 11.8834C9.71569 12.0688 9.86515 12.2418 10.0645 12.2418H14.5217L15.3053 14.3971H24.6403L25.4238 12.2418H29.8811C30.0804 12.2418 30.2299 12.0687 30.1907 11.8834L29.771 9.89626C29.7412 9.75632 29.6117 9.65564 29.4612 9.65564Z" fill="#F9C573"/>
<path d="M13.9463 9.65565C13.9463 5.57183 15.9922 2.16142 18.7184 1.34838V0C18.3825 0 18.1103 0.258375 18.1103 0.577092V1.3483C14.0621 2.16135 11.0242 5.57184 11.0242 9.65557H10.4841C10.3337 9.65557 10.2041 9.75632 10.1745 9.89626L9.75474 11.8834C9.71557 12.0688 9.86503 12.2418 10.0643 12.2418H14.205L14.573 9.65542H13.9463V9.65565Z" fill="#E2AF66"/>
<path d="M19.9724 9.65598C21.8289 9.65598 23.3339 8.22786 23.3339 6.46617C23.3339 4.70449 21.8289 3.27637 19.9724 3.27637C18.116 3.27637 16.611 4.70449 16.611 6.46617C16.611 8.22786 18.116 9.65598 19.9724 9.65598Z" fill="#FCE8CA"/>
<path d="M19.9727 10.1318C17.8437 10.1318 16.1116 8.48818 16.1116 6.46776C16.1116 4.44733 17.8436 2.80371 19.9727 2.80371C22.1019 2.80371 23.8339 4.44733 23.8339 6.46776C23.8339 8.48818 22.1018 10.1318 19.9727 10.1318ZM19.9727 3.75211C18.3948 3.75211 17.111 4.9704 17.111 6.46776C17.111 7.96511 18.3948 9.1834 19.9727 9.1834C21.5507 9.1834 22.8345 7.96511 22.8345 6.46776C22.8345 4.9704 21.5507 3.75211 19.9727 3.75211Z" fill="#EA8249"/>
<path d="M20.7468 6.73187C20.6674 6.64293 20.5834 6.55821 20.5006 6.47236C20.4184 6.38599 20.3307 6.3048 20.246 6.22069C20.1616 6.13898 20.0738 6.06058 19.9876 5.98044C20.0146 5.9493 20.0431 5.91958 20.0698 5.88813C20.1846 5.75044 20.2971 5.61071 20.4045 5.46595C20.5123 5.32164 20.615 5.17252 20.7132 5.0191C20.7618 4.9419 20.8093 4.86373 20.8546 4.78345C20.8997 4.70302 20.9429 4.62063 20.9828 4.53516C20.8926 4.57293 20.8059 4.61386 20.7211 4.65674C20.6366 4.69986 20.5541 4.74485 20.4728 4.79097C20.311 4.8842 20.154 4.98156 20.0019 5.08396C19.8493 5.18576 19.7021 5.2926 19.557 5.40155C19.4131 5.51162 19.2724 5.62463 19.1345 5.74035L18.8433 5.98451L19.1345 6.28908C19.2168 6.3753 19.2996 6.46115 19.3834 6.54602C19.4693 6.62894 19.5533 6.71373 19.6407 6.79507C19.7293 6.87543 19.8148 6.95864 19.9059 7.03667C19.9072 7.03787 19.9086 7.039 19.91 7.0402C19.8889 7.06511 19.8665 7.08873 19.8457 7.11386C19.7379 7.24448 19.6327 7.3775 19.5325 7.51534C19.431 7.6519 19.3355 7.79426 19.2436 7.93985C19.1978 8.01291 19.1534 8.08724 19.1109 8.16331C19.0684 8.23938 19.0281 8.31763 18.9906 8.39851C19.0759 8.36292 19.1583 8.3247 19.2385 8.28437C19.3187 8.24405 19.397 8.20183 19.474 8.1585C19.6274 8.07114 19.7773 7.98063 19.9212 7.88425C20.0665 7.78922 20.2067 7.6893 20.3443 7.58705C20.4815 7.48434 20.6164 7.37946 20.7469 7.27036L21.0221 7.04035L20.7468 6.73187Z" fill="#EA8249"/>
<path d="M34.5128 6.78864C34.3538 6.61032 34.1854 6.44081 34.0196 6.26888C33.855 6.09576 33.6793 5.93316 33.5096 5.76492C33.3405 5.60128 33.1644 5.44425 32.9921 5.28369C33.0462 5.22139 33.1032 5.1618 33.1568 5.09875C33.3867 4.82299 33.6121 4.54302 33.8271 4.25312C34.043 3.96398 34.2488 3.66535 34.4453 3.35799C34.5427 3.20345 34.6379 3.0468 34.7288 2.88608C34.8193 2.72492 34.9057 2.55992 34.9854 2.38867C34.8049 2.46436 34.631 2.54638 34.4613 2.63222C34.292 2.71852 34.1268 2.80881 33.964 2.90121C33.6401 3.08788 33.3255 3.28313 33.0207 3.48786C32.7152 3.69191 32.4202 3.90581 32.1296 4.12401C31.8413 4.34446 31.5596 4.57101 31.2833 4.80268L30.7 5.29174L31.2833 5.90194C31.4483 6.07461 31.6141 6.24654 31.7819 6.4165C31.9539 6.58263 32.122 6.75238 32.2972 6.91542C32.4746 7.07636 32.6459 7.24309 32.8282 7.39937C32.8309 7.40177 32.8337 7.40403 32.8363 7.40644C32.7942 7.45632 32.7492 7.50365 32.7075 7.55398C32.4916 7.81552 32.2809 8.0821 32.0802 8.35815C31.877 8.6318 31.6856 8.91681 31.5015 9.20836C31.4098 9.35463 31.3209 9.50361 31.2357 9.65597C31.1504 9.80825 31.0699 9.96513 30.9947 10.127C31.1654 10.0556 31.3306 9.97928 31.4911 9.89839C31.6517 9.81751 31.8087 9.73324 31.9628 9.64619C32.2702 9.47133 32.5705 9.28985 32.8588 9.09693C33.1498 8.90658 33.4306 8.70659 33.7062 8.50171C33.981 8.296 34.2512 8.08586 34.5125 7.86736L35.0638 7.40666L34.5128 6.78864Z" fill="#FCEA81"/>
<path d="M26.8015 34.9068C26.7151 34.81 26.6236 34.7178 26.5336 34.6245C26.4442 34.5304 26.3487 34.4421 26.2566 34.3507C26.1647 34.2618 26.069 34.1764 25.9755 34.0893C26.0049 34.0554 26.0359 34.0231 26.065 33.9888C26.19 33.839 26.3124 33.6869 26.4291 33.5294C26.5464 33.3723 26.6582 33.2101 26.765 33.0432C26.8178 32.9592 26.8695 32.8741 26.9189 32.7868C26.9681 32.6993 27.015 32.6096 27.0584 32.5166C26.9604 32.5578 26.8659 32.6023 26.7737 32.6489C26.6817 32.6958 26.5921 32.7449 26.5035 32.7951C26.3276 32.8964 26.1566 33.0025 25.9911 33.1138C25.8252 33.2247 25.6648 33.3408 25.507 33.4593C25.3504 33.5791 25.1974 33.7022 25.0472 33.828L24.7303 34.0937L25.0472 34.4252C25.1369 34.519 25.2269 34.6124 25.3181 34.7047C25.4115 34.795 25.5029 34.8873 25.598 34.9758C25.6944 35.0632 25.7874 35.1538 25.8864 35.2386C25.8879 35.2399 25.8895 35.2411 25.8909 35.2424C25.868 35.2696 25.8436 35.2952 25.821 35.3226C25.7037 35.4647 25.5892 35.6095 25.4802 35.7595C25.3698 35.9081 25.2659 36.0629 25.1657 36.2214C25.1159 36.3008 25.0677 36.3817 25.0213 36.4645C24.975 36.5472 24.9313 36.6324 24.8904 36.7203C24.9831 36.6815 25.0729 36.6401 25.1601 36.5961C25.2473 36.5522 25.3325 36.5064 25.4163 36.4591C25.5832 36.3641 25.7464 36.2656 25.9029 36.1607C26.061 36.0573 26.2136 35.9486 26.3633 35.8373C26.5126 35.7256 26.6593 35.6114 26.8013 35.4927L27.1007 35.2425L26.8015 34.9068Z" fill="#FCEA81"/>
<path d="M20.6547 29.3496H19.292V38.5243H20.6547V29.3496Z" fill="#D36F3D"/>
<path d="M5.87123 12.5961C5.62029 12.5961 5.41699 12.4031 5.41699 12.165V10.4408C5.41699 10.2028 5.62029 10.0098 5.87123 10.0098C6.12218 10.0098 6.32547 10.2028 6.32547 10.4408V12.165C6.32547 12.4031 6.1221 12.5961 5.87123 12.5961Z" fill="#FCEA81"/>
<path d="M1.2724 13.8022C1.11359 13.8022 0.959533 13.7231 0.876122 13.5824L0.0584247 12.203C-0.0645511 11.9955 0.0129133 11.7327 0.23159 11.616C0.450108 11.4993 0.727061 11.5729 0.850195 11.7804L1.66781 13.1597C1.79079 13.3673 1.71332 13.63 1.49465 13.7468C1.42416 13.7844 1.34781 13.8022 1.2724 13.8022Z" fill="#FCEA81"/>
<path d="M38.1514 12.8169L37.042 14.5308V25.3384H35.0879V14.5308L33.9786 12.8169L35.0225 9.18652H37.1084L38.1514 12.8169Z" fill="#CCCCCC"/>
<path d="M7.54107 19.0938H6.72337C6.72337 19.5394 6.34128 19.902 5.87166 19.902C5.40204 19.902 5.01995 19.5394 5.01995 19.0938H4.20233C4.20233 19.8332 4.73983 20.4541 5.46285 20.6278V24.8892H6.28047V20.6278C7.00358 20.4541 7.54107 19.8332 7.54107 19.0938Z" fill="white"/>
<path d="M38.1514 12.8169L37.0421 14.5308V25.3384H35.5422V14.5308L34.4329 12.8169L35.4768 9.18652H37.1084L38.1514 12.8169Z" fill="#E6E6E6"/>
<path d="M36.6136 38.5227H35.5171C34.3161 38.5227 33.3426 37.5988 33.3426 36.4592V27.4014C33.3426 26.2617 34.3162 25.3379 35.5171 25.3379H36.6136C37.8147 25.3379 38.7882 26.2618 38.7882 27.4014V36.4592C38.7882 37.5988 37.8146 38.5227 36.6136 38.5227Z" fill="#5D9EBA"/>
<path d="M36.1129 36.4582V27.4005C36.1129 26.5423 36.665 25.8066 37.4505 25.4955C37.1928 25.3934 36.9101 25.3369 36.6135 25.3369H35.517C34.316 25.3369 33.3424 26.2609 33.3424 27.4005V36.4582C33.3424 37.598 34.3161 38.5218 35.517 38.5218H36.6135C36.9101 38.5218 37.1929 38.4652 37.4505 38.3632C36.665 38.052 36.1129 37.3164 36.1129 36.4582Z" fill="#508DA3"/>
<path d="M39.2796 25.337C39.2796 25.6948 38.9743 25.9837 38.5982 25.9837H33.5324C33.1554 25.9837 32.851 25.6948 32.851 25.337C32.851 24.9801 33.1554 24.6904 33.5324 24.6904H38.5982C38.9743 24.6904 39.2796 24.9801 39.2796 25.337Z" fill="#508DA3"/>
<path d="M39.2796 25.339C39.2796 25.6968 38.9744 25.9856 38.5982 25.9856H35.8609C35.4848 25.9856 35.1795 25.6968 35.1795 25.339C35.1795 24.9821 35.4848 24.6924 35.8609 24.6924H38.5982C38.9744 24.6924 39.2796 24.9821 39.2796 25.339Z" fill="#5D9EBA"/>
<path d="M36.0654 36.1126C35.6891 36.1126 35.384 35.8231 35.384 35.466V28.3966C35.384 28.0395 35.689 27.75 36.0654 27.75C36.4419 27.75 36.7468 28.0395 36.7468 28.3966V35.466C36.7468 35.8231 36.4418 36.1126 36.0654 36.1126Z" fill="#5D9EBA"/>
<path d="M36.7467 28.3959V35.4653C36.7467 35.8076 36.4669 36.0878 36.1125 36.1093V27.752C36.4669 27.7744 36.7467 28.0537 36.7467 28.3959Z" fill="#508DA3"/>
<path d="M5.17846 34.0981C4.9892 34.0792 4.79986 34.0677 4.61068 34.0525L4.32675 34.0318L4.06517 34.0163L4.35109 33.5819L4.77639 32.9102L5.189 32.231L5.7908 31.2406L4.63343 31.2896L4.06565 31.3136C3.87639 31.3201 3.68705 31.3335 3.49787 31.3441C3.39614 31.3497 3.29434 31.3559 3.19261 31.3626C3.23677 31.2715 3.27975 31.1796 3.32304 31.0881C3.38028 30.9681 3.43587 30.8474 3.48986 30.7256C3.59999 30.4832 3.70529 30.2382 3.8059 29.9902C3.83159 29.9286 3.85625 29.8663 3.88051 29.8039C3.90462 29.7413 3.93023 29.6796 3.95267 29.616C3.9981 29.4893 4.0471 29.3645 4.08833 29.2354C3.98573 29.3289 3.8909 29.4269 3.7925 29.5228C3.74303 29.5707 3.69672 29.6204 3.64883 29.669C3.6011 29.7179 3.55377 29.767 3.50762 29.8167C3.32066 30.0143 3.13822 30.2146 2.96061 30.4178C2.87078 30.5187 2.78253 30.6205 2.69587 30.7234C2.60881 30.826 2.52041 30.9277 2.43604 31.0319L2.18034 31.3427L1.9305 31.657L1.42322 32.2952L2.36215 32.3884C2.55141 32.4072 2.74075 32.4194 2.92993 32.4341C3.11221 32.4489 3.29442 32.4604 3.47678 32.4706L3.1896 32.9065L2.76406 33.5781C2.69373 33.6904 2.62618 33.8042 2.55704 33.9172L2.35073 34.2568L1.74846 35.2484L2.90733 35.1999L3.47511 35.1762C3.66437 35.1695 3.85371 35.1572 4.04289 35.1461L4.32683 35.1293L4.34514 35.128C4.30153 35.2182 4.2588 35.309 4.21622 35.3997C4.15929 35.5198 4.10339 35.6404 4.04963 35.7623C3.9399 36.0048 3.83429 36.2498 3.73399 36.4978C3.70838 36.5595 3.68364 36.6218 3.65962 36.6843C3.63575 36.747 3.60998 36.8086 3.5877 36.8722C3.54243 36.9992 3.49359 37.1239 3.45252 37.2532C3.55527 37.1597 3.65018 37.0618 3.74889 36.9659C3.79853 36.9181 3.84467 36.8684 3.89272 36.8198C3.94053 36.771 3.98779 36.7219 4.03409 36.6722C4.22153 36.4747 4.40366 36.2744 4.58158 36.0714C4.67165 35.9707 4.75958 35.8686 4.8464 35.7659C4.9337 35.6635 5.02186 35.5615 5.10631 35.4575L5.36201 35.1467L5.61201 34.8325L6.12127 34.1927L5.17846 34.0981Z" fill="#FCEA81"/>
<path d="M8.34707 23.7656V25.1812C8.34707 25.8295 8.06996 26.4175 7.62206 26.8425C7.17416 27.2675 6.55548 27.5305 5.87138 27.5305C4.50406 27.5305 3.39569 26.4787 3.39569 25.1812V23.7656H8.34707Z" fill="#999999"/>
<path d="M4.39504 25.1812V23.7656H3.39569V25.1812C3.39569 26.4787 4.50406 27.5305 5.87138 27.5305C6.04264 27.5305 6.20978 27.514 6.37113 27.4826C5.24326 27.2632 4.39504 26.3163 4.39504 25.1812Z" fill="#808080"/>
<path d="M17.8165 34.3291C18.1803 34.3291 18.4752 34.0493 18.4752 33.7041C18.4752 33.3589 18.1803 33.0791 17.8165 33.0791C17.4528 33.0791 17.1579 33.3589 17.1579 33.7041C17.1579 34.0493 17.4528 34.3291 17.8165 34.3291Z" fill="#808080"/>
<path d="M17.8165 36.8946C18.1803 36.8946 18.4752 36.6147 18.4752 36.2695C18.4752 35.9244 18.1803 35.6445 17.8165 35.6445C17.4528 35.6445 17.1579 35.9244 17.1579 36.2695C17.1579 36.6147 17.4528 36.8946 17.8165 36.8946Z" fill="#808080"/>
</svg>
