<svg width="41" height="40" viewBox="0 0 41 40" fill="none" xmlns="http://www.w3.org/2000/svg">
<g opacity="0.3">
<path d="M30.1364 22.6437C29.7787 22.6438 29.4244 22.5754 29.0939 22.4426C28.7634 22.3097 28.4631 22.1149 28.21 21.8693C27.957 21.6236 27.7563 21.332 27.6193 21.011C27.4823 20.69 27.4117 20.3459 27.4116 19.9985C27.4115 19.651 27.4818 19.3069 27.6186 18.9858C27.7554 18.6647 27.956 18.373 28.2088 18.1272C28.4617 17.8814 28.7619 17.6864 29.0923 17.5533C29.4227 17.4202 29.7769 17.3517 30.1346 17.3516C30.857 17.3513 31.55 17.6299 32.0609 18.126C32.5719 18.622 32.8591 19.295 32.8594 19.9968C32.8596 20.6985 32.5728 21.3717 32.0622 21.8681C31.5515 22.3644 30.8588 22.6434 30.1364 22.6437Z" fill="#282828"/>
<path d="M20.7879 22.6439C22.2918 22.6439 23.5109 21.4596 23.5109 19.9987C23.5109 18.5378 22.2918 17.3535 20.7879 17.3535C19.284 17.3535 18.0649 18.5378 18.0649 19.9987C18.0649 21.4596 19.284 22.6439 20.7879 22.6439Z" fill="#282828"/>
<path d="M11.4376 22.6439C12.9415 22.6439 14.1606 21.4596 14.1606 19.9987C14.1606 18.5378 12.9415 17.3535 11.4376 17.3535C9.93373 17.3535 8.7146 18.5378 8.7146 19.9987C8.7146 21.4596 9.93373 22.6439 11.4376 22.6439Z" fill="#282828"/>
</g>
<path opacity="0.3" d="M20.5 0.844727C31.3752 0.844727 40.1553 9.44027 40.1553 20C40.1553 30.5597 31.3752 39.1553 20.5 39.1553C9.62481 39.1553 0.844727 30.5597 0.844727 20C0.844727 9.44027 9.62481 0.844727 20.5 0.844727Z" stroke="#282828" stroke-width="1.68908"/>
</svg>
