<svg width="210" height="181" viewBox="0 0 210 181" fill="none" xmlns="http://www.w3.org/2000/svg">
<path d="M110.991 180.983C153.575 180.983 188.097 146.461 188.097 103.877C188.097 61.2921 153.575 26.7705 110.991 26.7705C68.4062 26.7705 33.8845 61.2921 33.8845 103.877C33.8845 146.461 68.4062 180.983 110.991 180.983Z" fill="url(#paint0_linear_549_1849)"/>
<path d="M64.5077 133.733L96.9076 44.7646L165.232 117.008L85.8768 153.436C73.165 159.271 59.7214 146.876 64.5077 133.733Z" fill="#E1DCEB"/>
<path d="M97.8555 44.2381C98.3536 43.7707 99.0665 43.5159 100.009 43.4946C100.954 43.4732 102.108 43.6879 103.451 44.1363C106.136 45.0333 109.508 46.8428 113.345 49.427C121.014 54.5924 130.476 62.8124 139.91 72.8635C149.343 82.9146 156.948 92.8789 161.617 100.859C163.953 104.852 165.546 108.332 166.271 111.069C166.633 112.437 166.774 113.602 166.693 114.544C166.612 115.483 166.313 116.179 165.815 116.646C165.317 117.114 164.604 117.368 163.661 117.39C162.716 117.411 161.562 117.197 160.219 116.749C157.534 115.852 154.162 114.042 150.325 111.457C142.657 106.292 133.193 98.0726 123.76 88.0215C114.326 77.9704 106.723 68.0054 102.053 60.0251C99.7171 56.0327 98.124 52.5528 97.3989 49.8163C97.0363 48.4479 96.8959 47.2823 96.9771 46.3402C97.058 45.4008 97.3574 44.7056 97.8555 44.2381Z" fill="black" stroke="black" stroke-width="0.656223"/>
<mask id="mask0_549_1849" style="mask-type:alpha" maskUnits="userSpaceOnUse" x="63" y="44" width="103" height="111">
<path d="M64.5077 133.734L96.9076 44.7656L165.232 117.008L85.8768 153.437C73.165 159.272 59.7214 146.877 64.5077 133.734Z" fill="#E1DCEB"/>
</mask>
<g mask="url(#mask0_549_1849)">
<path fill-rule="evenodd" clip-rule="evenodd" d="M95.3886 103.925C81.6997 85.9978 74.7735 64.6255 72.5396 50.2767L83.5626 48.5605C85.5734 61.4763 91.9203 81.0008 104.255 97.1545C116.474 113.156 134.35 125.634 159.845 125.634V136.79C130.092 136.79 109.194 122.004 95.3886 103.925Z" fill="black"/>
<path fill-rule="evenodd" clip-rule="evenodd" d="M96.8579 100.497C83.1689 82.57 76.2427 61.1977 74.0088 46.849L85.0318 45.1328C87.0426 58.0486 93.3895 77.5731 105.724 93.7267C117.943 109.728 135.82 122.207 161.314 122.207V133.362C131.561 133.362 110.663 118.576 96.8579 100.497Z" fill="white"/>
<path fill-rule="evenodd" clip-rule="evenodd" d="M79.2258 126.456C65.5368 108.529 58.6107 87.1567 56.3767 72.808L67.3997 71.0918C69.4105 84.0076 75.7574 103.532 88.0923 119.686C100.311 135.687 118.187 148.166 143.682 148.166V159.321C113.929 159.321 93.0308 144.535 79.2258 126.456Z" fill="white"/>
</g>
<circle cx="127.069" cy="140.951" r="19.6867" fill="black"/>
<path fill-rule="evenodd" clip-rule="evenodd" d="M135.035 134.979C135.797 135.755 135.786 137.001 135.011 137.763L125.665 146.95C124.899 147.703 123.671 147.703 122.905 146.95L119.126 143.236C118.351 142.474 118.34 141.228 119.103 140.452C119.865 139.677 121.111 139.666 121.887 140.429L124.285 142.786L132.251 134.955C133.026 134.193 134.273 134.204 135.035 134.979Z" fill="white"/>
<path d="M165.565 46.9628C165.366 47.4677 164.795 47.7174 164.29 47.5182L164.288 47.5179C163.815 47.334 163.566 46.8205 163.7 46.3415L163.732 46.2462C165.058 42.8761 165.427 39.5005 165.992 36.0518C166.08 35.5151 166.586 35.1504 167.122 35.2387C167.659 35.3273 168.023 35.8322 167.936 36.3675C167.333 40.0487 166.928 43.5003 165.565 46.9628Z" fill="black" stroke="black" stroke-width="0.656223"/>
<path d="M172.336 54.8547C171.891 55.1641 171.276 55.0529 170.965 54.6079C170.656 54.1648 170.766 53.553 171.212 53.2429C177.819 48.669 184.293 42.5091 189.107 36.0566C189.43 35.6224 190.048 35.5326 190.486 35.8561C190.921 36.178 191.011 36.7931 190.687 37.228L190.688 37.2291C185.754 43.8421 179.114 50.1606 172.337 54.8549L172.336 54.8547Z" fill="black" stroke="black" stroke-width="0.656223"/>
<path d="M189.848 60.39C184.535 61.9079 178.682 62.6792 173.346 61.0505C172.859 60.9014 172.572 60.4074 172.668 59.922L172.693 59.8249C172.851 59.3095 173.401 59.0157 173.922 59.1748C178.952 60.7096 184.42 59.8988 189.303 58.502C189.826 58.3537 190.372 58.6559 190.522 59.1768L190.523 59.1769C190.672 59.6922 190.372 60.238 189.848 60.39Z" fill="black" stroke="black" stroke-width="0.656223"/>
<circle cx="173.66" cy="70.7371" r="3.93734" fill="#E2F284"/>
<circle cx="140.849" cy="30.0526" r="3.93734" fill="#E2F284"/>
<path d="M148.423 47.4185C148.084 46.0115 146.082 46.0115 145.743 47.4185L145.303 49.2409C145.181 49.7437 144.789 50.1363 144.286 50.2577L142.464 50.6976C141.057 51.0372 141.057 53.0385 142.464 53.3781L144.286 53.818C144.789 53.9394 145.181 54.3319 145.303 54.8347L145.743 56.6572C146.082 58.0641 148.084 58.0641 148.423 56.6572L148.863 54.8347C148.985 54.3319 149.377 53.9394 149.88 53.818L151.702 53.3781C153.109 53.0385 153.109 51.0372 151.702 50.6976L149.88 50.2577C149.377 50.1363 148.985 49.7437 148.863 49.2409L148.423 47.4185Z" fill="#E2F284"/>
<path fill-rule="evenodd" clip-rule="evenodd" d="M131.639 17.1307C132.037 18.1426 131.539 19.2854 130.527 19.6833C127.639 20.819 123.938 24.4772 121.466 29.0307C119.585 32.4966 118.672 35.997 119.055 38.8616C120.211 37.212 121.595 35.8588 123.199 34.9895C126.076 33.4313 129.358 33.5967 132.536 35.7621C135.312 37.6541 136.444 40.3463 136.144 43.0288C135.858 45.5936 134.293 47.9122 132.171 49.3688C130.016 50.8471 127.156 51.5289 124.205 50.6253C122.533 50.1131 120.929 49.1227 119.46 47.6187C118.06 53.0708 118.111 59.9001 120.425 65.9402C120.814 66.9555 120.307 68.0939 119.291 68.483C118.276 68.8721 117.138 68.3644 116.749 67.3492C113.696 59.3834 114.093 50.2859 116.582 43.66C116.511 43.5322 116.441 43.4027 116.371 43.2714C113.753 38.3271 115.321 32.1003 118.006 27.1525C120.712 22.1665 125.003 17.6247 129.086 16.019C130.098 15.6212 131.241 16.1189 131.639 17.1307ZM121.003 43.3215C122.49 45.4336 124.032 46.4544 125.358 46.8605C127.028 47.3719 128.656 47.0051 129.943 46.1223C131.261 45.2177 132.089 43.8624 132.231 42.5914C132.36 41.4381 131.957 40.1326 130.318 39.0158C128.241 37.6002 126.535 37.6604 125.075 38.4516C123.618 39.2405 122.176 40.8915 121.003 43.3215Z" fill="#E3E3E3"/>
<path fill-rule="evenodd" clip-rule="evenodd" d="M195.19 94.1263C174.555 86.4565 158.763 95.9936 153.656 101.388C152.41 102.704 150.334 102.761 149.018 101.515C147.702 100.269 147.645 98.1924 148.891 96.8765C155.376 90.0261 173.836 79.1884 197.476 87.9752C199.175 88.6065 200.04 90.4953 199.409 92.1939C198.777 93.8925 196.889 94.7576 195.19 94.1263Z" fill="#CCC6D9"/>
<path fill-rule="evenodd" clip-rule="evenodd" d="M174.197 101.02C174.658 100.852 175.142 100.628 175.516 100.303C175.96 99.9177 176.14 99.4214 176.262 98.899C176.417 98.2278 176.479 97.5128 176.668 96.8406C176.738 96.5909 176.872 96.4965 176.93 96.4546C177.076 96.3489 177.223 96.3206 177.362 96.3312C177.526 96.3434 177.752 96.4073 177.901 96.6904C177.922 96.731 177.949 96.7927 177.968 96.8773C177.981 96.9393 177.99 97.1332 178.004 97.2131C178.04 97.41 178.07 97.6069 178.098 97.8049C178.191 98.4639 178.245 99.0235 178.54 99.6289C178.941 100.451 179.342 100.954 179.886 101.176C180.412 101.392 181.041 101.351 181.845 101.182C181.921 101.163 181.997 101.147 182.072 101.134C182.426 101.07 182.765 101.309 182.835 101.672C182.904 102.034 182.679 102.388 182.328 102.467C182.255 102.484 182.182 102.5 182.111 102.514C181.025 102.79 179.767 103.777 179.037 104.64C178.811 104.906 178.482 105.651 178.145 106.125C177.897 106.476 177.618 106.707 177.384 106.788C177.227 106.843 177.095 106.835 176.985 106.807C176.827 106.767 176.695 106.678 176.594 106.538C176.539 106.461 176.488 106.358 176.463 106.226C176.452 106.163 176.45 106.002 176.45 105.929C176.382 105.686 176.298 105.45 176.237 105.205C176.091 104.622 175.805 104.253 175.465 103.765C175.147 103.308 174.806 103.021 174.306 102.792C174.24 102.776 173.715 102.644 173.53 102.568C173.259 102.457 173.129 102.27 173.083 102.17C173.003 102 172.995 101.851 173.011 101.727C173.034 101.544 173.114 101.387 173.256 101.261C173.344 101.182 173.475 101.106 173.651 101.069C173.787 101.04 174.147 101.023 174.197 101.02ZM177.279 100.069C177.303 100.125 177.329 100.181 177.357 100.238C177.943 101.442 178.599 102.114 179.396 102.44L179.423 102.45C178.89 102.857 178.407 103.312 178.038 103.748C177.886 103.927 177.685 104.3 177.468 104.682C177.27 104.023 176.948 103.557 176.542 102.973C176.231 102.528 175.906 102.193 175.507 101.92C175.817 101.757 176.113 101.565 176.37 101.342C176.799 100.969 177.082 100.538 177.279 100.069Z" fill="#E3E3E3"/>
<path d="M58.5472 101.203C58.9914 100.803 59.6765 100.842 60.0734 101.289C60.4731 101.735 60.435 102.422 59.9915 102.821C57.4295 105.126 55.9774 107.975 55.555 111.397C55.4881 111.955 55.0081 112.361 54.4587 112.348L54.3475 112.339C53.7571 112.264 53.3339 111.722 53.4087 111.127L53.4573 110.76C54.0026 106.971 55.6772 103.786 58.5472 101.203Z" fill="black" stroke="black" stroke-width="0.656223"/>
<path d="M5.44516 107.929C10.8779 104.293 17.8474 105.386 21.9747 110.349C22.3877 109.83 22.8313 109.336 23.3018 108.871C28.6664 103.576 37.7513 103.59 45.503 108.862L45.7353 109.027C46.8866 109.883 47.8947 111.175 48.7731 112.73C49.7119 114.393 50.5139 116.378 51.1873 118.503C52.4896 122.611 53.3512 127.267 53.919 131.028C54.3575 129.235 54.8908 127.474 55.476 125.71C58.4055 116.882 61.1788 107.543 67.1927 100.145L67.1935 100.143C67.5727 99.6805 68.2552 99.6098 68.7172 99.9923L68.7162 99.9925C69.1503 100.349 69.2344 100.971 68.9343 101.428L68.8695 101.518C63.066 108.659 60.4145 117.698 57.5282 126.397C56.6247 129.12 55.855 131.815 55.3789 134.631L55.379 134.632C55.2335 135.481 55.0838 136.311 54.9841 137.152C54.984 137.155 54.984 137.164 54.9862 137.183C54.989 137.206 54.9944 137.236 55.0028 137.274C55.0114 137.313 55.0212 137.352 55.0328 137.399L55.0657 137.548L55.0671 137.551C55.1153 137.812 55.1485 138.091 55.1271 138.318L55.1276 138.32C55.0854 138.735 54.8937 139.049 54.6211 139.255L54.6193 139.256C54.419 139.405 54.1574 139.512 53.8217 139.506L53.8177 139.505C53.5787 139.498 53.1896 139.427 52.9164 138.988L52.9172 138.987C52.8857 138.936 52.8608 138.874 52.8438 138.825C52.8231 138.766 52.8011 138.691 52.7785 138.603C52.7558 138.515 52.7324 138.411 52.7096 138.292L52.6446 137.888C52.3351 135.544 51.5374 127.586 49.5762 120.663C48.9467 118.44 48.2119 116.331 47.3352 114.577C46.456 112.818 45.4495 111.446 44.2925 110.659C37.3723 105.953 29.4345 105.865 24.8189 110.419C24.2338 110.997 23.6983 111.622 23.2217 112.29C23.4039 112.789 23.5696 113.431 23.6675 114.096C23.7763 114.836 23.8061 115.631 23.671 116.301L23.6712 116.302C23.5293 117.005 23.207 117.603 22.6944 117.972C22.1903 118.335 21.518 118.487 20.667 118.256L20.4945 118.205C19.697 117.947 19.3163 117.27 19.26 116.488C19.2063 115.773 19.4522 114.923 19.5969 114.53L19.7214 114.204C19.9941 113.516 20.3212 112.852 20.6916 112.217C17.326 107.705 11.309 106.616 6.64771 109.736L6.6469 109.737C6.14753 110.07 5.47781 109.932 5.14539 109.435L5.14411 109.434C4.8159 108.937 4.94598 108.262 5.44516 107.929ZM21.6064 115.34C21.5324 115.551 21.4334 115.888 21.4163 116.193C21.4162 116.195 21.4164 116.198 21.4164 116.2C21.4177 116.2 21.4192 116.201 21.4205 116.201C21.4279 116.202 21.4333 116.201 21.4372 116.201C21.4465 116.192 21.4639 116.173 21.4834 116.125C21.5085 116.063 21.5282 115.982 21.551 115.869L21.5509 115.868C21.5838 115.706 21.6005 115.528 21.6064 115.34Z" fill="black" stroke="black" stroke-width="0.656223"/>
<defs>
<linearGradient id="paint0_linear_549_1849" x1="110.396" y1="1.66283" x2="111.976" y2="272.448" gradientUnits="userSpaceOnUse">
<stop stop-color="#F2F2F2"/>
<stop offset="1" stop-color="#EFEFEF"/>
</linearGradient>
</defs>
</svg>
