<svg width="20" height="20" viewBox="0 0 20 20" fill="none" xmlns="http://www.w3.org/2000/svg">
<path fill-rule="evenodd" clip-rule="evenodd" d="M5.27057 1.292C5.71826 1.06818 6.25235 0.804964 7.2389 0.804964C8.22545 0.804964 8.75953 1.06815 9.20723 1.29198L9.22005 1.29839C9.57042 1.47361 9.84159 1.60921 10.4562 1.60923C11.4512 1.60927 12.0405 1.23826 12.237 1.09059C12.5429 0.860722 12.9043 0.880103 13.1538 0.99551C13.4066 1.1124 13.6735 1.3913 13.6735 1.80351L13.6735 10.4568H16.0865C17.4186 10.4568 18.4994 11.5358 18.4994 12.869V15.2828C18.4994 16.0268 18.3111 16.6382 17.9873 17.1239C17.6669 17.6046 17.2454 17.915 16.8483 18.1135C16.4544 18.3105 16.0703 18.4049 15.7914 18.4514C15.6239 18.4794 15.4523 18.5004 15.2821 18.5001H4.02161C3.27763 18.5001 2.66616 18.3118 2.18046 17.988C1.69979 17.6675 1.38938 17.246 1.19086 16.849C0.993913 16.4551 0.89945 16.0709 0.852968 15.792C0.829409 15.6507 0.817318 15.5311 0.811078 15.4438C0.805879 15.371 0.804343 15.3279 0.804321 15.2828V1.8035C0.804321 1.39131 1.07123 1.1124 1.32396 0.995507C1.57348 0.880095 1.93489 0.860713 2.24076 1.09057C2.43725 1.23823 3.02658 1.60923 4.02161 1.60923C4.63623 1.60923 4.9074 1.47363 5.25776 1.29841L5.27057 1.292ZM2.41564 15.2828L2.41297 2.96353C2.84744 3.10997 3.38405 3.21788 4.02161 3.21788C5.00817 3.21788 5.54226 2.95467 5.98994 2.73084L6.00276 2.72443C6.35312 2.54922 6.62428 2.41361 7.2389 2.41361C7.85354 2.41361 8.12471 2.54921 8.47507 2.72442L8.48787 2.73083C8.93555 2.95464 9.46963 3.21785 10.4562 3.21788C11.0937 3.2179 11.6304 3.11 12.0648 2.96355V15.2828C12.0648 15.9126 12.1998 16.4474 12.4377 16.8914H4.02161C3.55912 16.8914 3.26571 16.7781 3.07277 16.6495C2.8748 16.5175 2.73278 16.3358 2.62967 16.1296C2.525 15.9202 2.46865 15.7011 2.43973 15.5276C2.42613 15.446 2.41789 15.3651 2.41564 15.2828ZM15.5269 16.8647C15.7005 16.8357 15.9196 16.7794 16.1289 16.6747C16.3351 16.5716 16.5169 16.4296 16.6488 16.2316C16.7775 16.0387 16.8908 15.7453 16.8908 15.2828V12.869C16.8908 12.4253 16.5312 12.0655 16.0865 12.0655H13.6735L13.6735 15.2828C13.6735 15.7453 13.7868 16.0387 13.9154 16.2316C14.0474 16.4296 14.2292 16.5716 14.4354 16.6747C14.6447 16.7794 14.8638 16.8357 15.0373 16.8647C15.1222 16.8788 15.1912 16.8856 15.2358 16.8888C15.3328 16.8957 15.4315 16.8806 15.5269 16.8647Z" fill="#0F0F0F"/>
<path d="M4.02161 6.43523C4.02161 5.99101 4.38172 5.6309 4.82594 5.6309H9.65187C10.0961 5.6309 10.4562 5.99101 10.4562 6.43523C10.4562 6.87944 10.0961 7.23955 9.65187 7.23955H4.82594C4.38172 7.23955 4.02161 6.87944 4.02161 6.43523Z" fill="#0F0F0F"/>
<path d="M4.02161 9.65252C4.02161 9.2083 4.38172 8.84819 4.82594 8.84819H9.65187C10.0961 8.84819 10.4562 9.2083 10.4562 9.65252C10.4562 10.0967 10.0961 10.4568 9.65187 10.4568H4.82594C4.38172 10.4568 4.02161 10.0967 4.02161 9.65252Z" fill="#0F0F0F"/>
<path d="M4.02161 12.8698C4.02161 12.4256 4.38172 12.0655 4.82594 12.0655H9.65187C10.0961 12.0655 10.4562 12.4256 10.4562 12.8698C10.4562 13.314 10.0961 13.6741 9.65187 13.6741H4.82594C4.38172 13.6741 4.02161 13.314 4.02161 12.8698Z" fill="#0F0F0F"/>
</svg>
