<svg width="37" height="39" viewBox="0 0 37 39" fill="none" xmlns="http://www.w3.org/2000/svg">
<g opacity="0.3">
<path fill-rule="evenodd" clip-rule="evenodd" d="M8 6C8 4.89543 8.89543 4 10 4H22.5858C22.851 4 23.1054 4.10536 23.2929 4.29289L28.7071 9.70711C28.8946 9.89464 29 10.149 29 10.4142V28C29 29.1046 28.1046 30 27 30H10C8.89543 30 8 29.1046 8 28V6ZM10 6V28H27V11H22C20.8954 11 20 10.1046 20 9V6H10ZM22 6.41421V9H24.5858L22 6.41421Z" fill="#0F0F0F"/>
<path d="M15.5 18.5C15.5 17.1193 16.6193 16 18 16C19.3807 16 20.5 17.1193 20.5 18.5C20.5 19.8807 19.3807 21 18 21C16.6193 21 15.5 19.8807 15.5 18.5Z" fill="#0F0F0F"/>
<path d="M22 24L18 20M15 14L13 12M20 14L22 12" stroke="#0F0F0F" stroke-width="1.8" stroke-linecap="round"/>
</g>
</svg>
