<svg width="21" height="21" viewBox="0 0 21 21" fill="none" xmlns="http://www.w3.org/2000/svg">
<g opacity="0.3">
<path fill-rule="evenodd" clip-rule="evenodd" d="M4.36682 5.11024C4.23895 4.615 4.22408 4.09669 4.3241 3.59384C4.4334 3.04433 4.67654 2.53026 5.03198 2.09716C5.38741 1.66407 5.84417 1.32531 6.3618 1.1109C6.87942 0.896493 7.44194 0.813052 7.99951 0.867969C8.55709 0.922885 9.09252 1.11446 9.55837 1.42574C9.80421 1.59 10.0267 1.78493 10.2208 2.00503C10.4017 1.79984 10.6074 1.61646 10.8338 1.45936C11.2859 1.14565 11.8073 0.946133 12.3534 0.877874C12.8995 0.809614 13.4539 0.874647 13.9694 1.06741C14.4848 1.26017 14.9459 1.57492 15.3132 1.98474C15.6804 2.39456 15.943 2.88724 16.0783 3.42065C16.2136 3.95406 16.2177 4.51231 16.0903 5.04766C16.0853 5.06858 16.0801 5.08944 16.0747 5.11024H16.1829C17.5941 5.11024 18.7381 6.25424 18.7381 7.66544V8.51718C18.7381 9.62973 18.0271 10.5762 17.0347 10.927V17.0345C17.0347 18.4457 15.8907 19.5897 14.4795 19.5897H5.96211C4.5509 19.5897 3.4069 18.4457 3.4069 17.0345V10.927C2.41446 10.5762 1.70343 9.62973 1.70343 8.51718V7.66544C1.70343 6.25424 2.84744 5.11024 4.25864 5.11024H4.36682ZM9.1585 3.46052C9.28966 3.7059 9.36896 3.97982 9.36905 4.25805V5.11024H6.20265C6.13675 4.99705 6.08396 4.87618 6.04566 4.7499C5.96484 4.4835 5.95098 4.20129 6.00529 3.92825C6.0596 3.65522 6.18041 3.39979 6.35701 3.18459C6.53362 2.9694 6.76057 2.80108 7.01777 2.69455C7.27496 2.58802 7.55446 2.54656 7.8315 2.57384C8.10855 2.60113 8.37458 2.69632 8.60605 2.85098C8.83752 3.00564 9.02727 3.215 9.1585 3.46052ZM11.0725 17.8863H14.4795C14.9499 17.8863 15.3312 17.5049 15.3312 17.0345V11.0724H11.0725V17.8863ZM9.36905 11.0724V17.8863H5.96211C5.4917 17.8863 5.11037 17.5049 5.11037 17.0345V11.0724H9.36905ZM11.0725 9.36891H16.1829C16.6533 9.36891 17.0347 8.98758 17.0347 8.51718V7.66544C17.0347 7.19504 16.6533 6.81371 16.1829 6.81371H11.0725V9.36891ZM9.36905 6.81371V9.36891H4.25864C3.78824 9.36891 3.4069 8.98758 3.4069 8.51718V7.66544C3.4069 7.19504 3.78824 6.81371 4.25864 6.81371H9.36905ZM11.0725 5.11024H14.2389C14.3221 4.96736 14.3842 4.81256 14.4228 4.65061C14.4861 4.38461 14.4841 4.10723 14.4168 3.8422C14.3496 3.57716 14.2191 3.33236 14.0366 3.12873C13.8541 2.92511 13.6251 2.76872 13.3689 2.67294C13.1128 2.57716 12.8373 2.54485 12.566 2.57876C12.2947 2.61268 12.0356 2.71182 11.811 2.86769C11.5863 3.02356 11.4028 3.23154 11.276 3.47382C11.1494 3.71586 11.0726 3.98535 11.0725 4.2585V5.11024Z" fill="#0F0F0F"/>
</g>
</svg>
