<svg width="39" height="37" viewBox="0 0 39 37" fill="none" xmlns="http://www.w3.org/2000/svg">
<path d="M11.7316 7.6875C11.1921 8.93127 9.30334 10.8559 7.38867 11.365L14.3303 17.9522L19.7951 23.1381L26.903 29.8831C27.4417 28.0587 29.4768 26.2703 30.7783 25.7618L11.7316 7.6875Z" fill="#61626D"/>
<path d="M21.9732 21.3823C21.583 21.012 10.3886 10.389 9.9128 9.9375C9.1505 10.606 8.31824 11.1169 7.38867 11.3641L14.3303 17.9513L19.7951 23.1372L26.903 29.8822C27.1634 29.0001 27.7018 28.2104 28.4063 27.4869L21.9732 21.3823Z" fill="#3F404C"/>
<path d="M23.7462 15.8894L35.3315 4.89551L33.5527 3.20753L21.9674 14.2014L23.7462 15.8894Z" fill="#CDCECC"/>
<path d="M23.7462 15.8894L35.3315 4.89551L33.5527 3.20753L21.9674 14.2014L23.7462 15.8894Z" fill="#E5E5E5"/>
<path d="M21.9674 14.2025L22.8068 14.999L34.392 4.00527L33.5526 3.20873L21.9674 14.2025Z" fill="#CDCECC"/>
<path d="M23.1711 18.3654L24.0555 17.5261C24.4631 17.1393 24.4631 16.5124 24.0555 16.1256L21.7189 13.9083C21.3113 13.5215 20.6505 13.5215 20.243 13.9083L19.3585 14.7476L23.1711 18.3654Z" fill="#FF8C01"/>
<path d="M21.7188 13.9081C21.7008 13.8911 21.6819 13.8758 21.663 13.8604C21.1552 14.4105 20.6903 14.9972 20.2739 15.6161L23.1711 18.3653L24.0555 17.5261C24.4631 17.1392 24.4631 16.5123 24.0555 16.1256L21.7188 13.9081Z" fill="#FFA403"/>
<path d="M23.3923 18.4264L19.2937 14.537C18.9165 14.1791 18.3048 14.1791 17.9276 14.537L2.01701 29.6353C0.507838 31.0674 0.507838 33.3891 2.01701 34.8212C3.52604 36.2532 5.97268 36.2532 7.48178 34.8212L23.3924 19.7229C23.7696 19.3649 23.7696 18.7845 23.3923 18.4264Z" fill="#FF8C01"/>
<path d="M3.47393 30.85L19.9791 15.1875L19.2936 14.537C18.9164 14.1791 18.3047 14.1791 17.9275 14.537L2.0171 29.6352C0.243114 31.3186 0.603715 34.1372 2.75585 35.3696C1.94531 33.9161 2.1846 32.0736 3.47393 30.85Z" fill="#F45C0F"/>
<path d="M20.3356 15.5264C18.7867 17.7919 17.8864 20.4939 17.8864 23.3958C17.8864 23.8948 17.9131 24.3879 17.965 24.8738L23.3924 19.7236C23.7697 19.3656 23.7697 18.7851 23.3924 18.4271L20.3356 15.5264Z" fill="#FFA403"/>
<path d="M23.3923 18.4264L19.2936 14.537C18.9164 14.1791 18.3047 14.1791 17.9275 14.537L16.3904 15.9956L21.8554 21.1815L23.3924 19.7229C23.7696 19.3649 23.7696 18.7845 23.3923 18.4264Z" fill="#FFC35A"/>
<path d="M17.7591 17.2942L19.9791 15.1875L19.2936 14.537C18.9164 14.1791 18.3047 14.1791 17.9275 14.537L16.3904 15.9956L17.7591 17.2942Z" fill="#F9A346"/>
<path d="M23.3923 18.426L20.3355 15.5254C19.7382 16.3989 19.2379 17.3376 18.848 18.3274L21.8553 21.1811L23.3923 19.7225C23.7696 19.3645 23.7696 18.7842 23.3923 18.426Z" fill="#FFD188"/>
<path d="M17.6712 19.9658C17.18 19.4997 16.3837 19.4997 15.8927 19.9658L3.9807 31.2697C3.48959 31.7357 3.48959 32.4914 3.9807 32.9574C4.47188 33.4235 5.26806 33.4235 5.75924 32.9574L17.6712 21.6537C18.1624 21.1875 18.1624 20.432 17.6712 19.9658Z" fill="#FFD188"/>
<path d="M4.78915 32.0858L16.701 20.782C17.051 20.4499 17.5557 20.3558 17.9948 20.4971C17.7427 19.6125 16.5745 19.3187 15.8927 19.9658L3.98074 31.2695C3.32343 31.8932 3.58285 32.9582 4.46562 33.2423C4.35183 32.8431 4.45894 32.399 4.78915 32.0858Z" fill="#FFC35A"/>
<path d="M36.7482 2.25456L36.3358 1.86321C35.9585 1.50523 35.3469 1.50523 34.9696 1.86321L33.5351 3.22455L33.4436 3.31134L35.2222 4.99908L35.3315 4.89557L36.7483 3.55095C37.1255 3.1929 37.1255 2.61254 36.7482 2.25456Z" fill="#FC5151"/>
<path d="M34.2829 4.10782L34.3447 4.04914H34.3447L35.828 2.64138C36.1151 2.36904 36.533 2.29789 36.8894 2.42613C36.8098 2.30257 36.7847 2.28902 36.3359 1.86321C35.9587 1.50523 35.347 1.50523 34.9697 1.86321L33.5352 3.22455L33.4437 3.31134L34.2829 4.10782Z" fill="#D33333"/>
<path d="M10.569 1.56108C9.07299 0.141493 6.89131 -0.319639 4.85084 0.217616C4.50581 0.308444 4.39027 0.720198 4.64445 0.961468L8.3742 4.5008L7.50586 7.57612L4.26508 8.40006L0.852635 5.16176C0.578329 4.90146 0.107581 5.05291 0.0558494 5.41716C-0.190198 7.15168 0.39047 8.8315 1.64896 10.0258C4.00058 12.2572 7.86911 12.0359 10.2782 9.74973C12.7373 7.41609 12.8678 3.74261 10.569 1.56108Z" fill="#A5A6AD"/>
<path d="M3.60406 10.0259C2.53813 9.01428 1.95876 7.65467 1.95572 6.20842L0.852722 5.16181C0.578416 4.9015 0.107668 5.05296 0.0559366 5.4172C-0.467606 9.10742 2.75676 12.113 6.67816 11.5108C5.50642 11.3282 4.43852 10.8177 3.60406 10.0259Z" fill="#8A8C93"/>
<path d="M37.2332 26.8641C34.8871 24.6379 31.0168 24.8504 28.6039 27.1401C24.1455 31.3709 27.9552 38.2703 34.031 36.6723C34.3768 36.5813 34.4913 36.1692 34.2375 35.9284L30.5078 32.3891L31.3761 29.3138L34.6168 28.4898L38.0295 31.7281C38.3034 31.9881 38.7744 31.8376 38.8262 31.4728C39.0723 29.7381 38.4917 28.0584 37.2332 26.8641Z" fill="#A5A6AD"/>
<path d="M30.2284 35.478C26.6249 32.0583 29.3059 25.8647 34.6299 25.4714C32.4744 24.9593 30.1754 25.6495 28.6039 27.1409C24.5577 30.9805 27.2715 37.2762 32.8351 36.8718C31.8474 36.638 30.9505 36.1631 30.2284 35.478Z" fill="#8A8C93"/>
<path d="M13.9566 12.1848C14.3339 12.5428 14.3339 13.1232 13.9566 13.4813L13.7289 13.6974C13.3517 14.0553 12.7399 14.0553 12.3627 13.6974L11.395 12.779C11.0178 12.4211 11.0178 11.8406 11.395 11.4826L11.6227 11.2665C11.9999 10.9086 12.6116 10.9086 12.9889 11.2665L13.9566 12.1848Z" fill="#A1A4AD"/>
<path d="M11.4679 11.4131L11.395 11.4824C11.0178 11.8404 11.0178 12.4208 11.395 12.7788L12.3627 13.6971C12.7399 14.055 13.3517 14.055 13.7289 13.6971L13.8019 13.6278L11.4679 11.4131Z" fill="#878993"/>
<path d="M26.9167 24.4837C27.294 24.8417 27.294 25.4222 26.9167 25.7801L26.689 25.9962C26.3117 26.3542 25.7001 26.3542 25.3228 25.9962L24.3551 25.0778C23.9778 24.7199 23.9778 24.1395 24.3551 23.7814L24.5827 23.5653C24.96 23.2074 25.5717 23.2074 25.9489 23.5653L26.9167 24.4837Z" fill="#A1A4AD"/>
<path d="M24.4282 23.7109L24.3553 23.7802C23.978 24.1383 23.978 24.7187 24.3553 25.0766L25.323 25.995C25.7003 26.3529 26.3119 26.3529 26.6892 25.995L26.7622 25.9258L24.4282 23.7109Z" fill="#878993"/>
</svg>
