<svg width="24" height="24" viewBox="0 0 24 24" fill="none" xmlns="http://www.w3.org/2000/svg">
<g opacity="0.3">
<path fill-rule="evenodd" clip-rule="evenodd" d="M10.1507 2.36448C10.8306 0.713138 13.1694 0.713148 13.8494 2.36448L16.1856 8.03818L21.4255 8.34641C23.2632 8.45451 23.9912 10.7782 22.5437 11.9156L18.1816 15.3429L19.9202 20.269C20.5648 22.0951 18.497 23.6798 16.9012 22.5827L12 19.2131L7.09881 22.5827C5.50303 23.6798 3.43525 22.0951 4.07977 20.269L5.81838 15.3429L1.45635 11.9156C0.0087955 10.7782 0.736801 8.45451 2.57454 8.34641L7.81442 8.03818L10.1507 2.36448ZM12 3.12598L9.18559 9.96098L2.69199 10.343L8.18164 14.6563L5.96575 20.9346L12 16.786L18.0343 20.9346L15.8184 14.6563L21.308 10.343L14.8144 9.96098L12 3.12598Z" fill="#0F0F0F"/>
</g>
</svg>
